<?xml version="1.0" encoding="UTF-8"?>
<svg width="43px" height="43px" viewBox="0 0 43 43" version="1.1" xmlns="http://www.w3.org/2000/svg" xmlns:xlink="http://www.w3.org/1999/xlink">
    <title>website/public/assets/bgtile</title>
    <g id="Page-1" stroke="none" stroke-width="1" fill="none" fill-rule="evenodd" stroke-dasharray="8,13" stroke-linecap="square">
        <g id="Artboard" transform="translate(-78.000000, -1118.000000)" stroke="#FFF7F5" stroke-width="2">
            <g id="Group-18" transform="translate(-9.500000, 1.500000)">
                <path d="M466,0 L466,2296 M0,25 L2035.5,25 M0,67 L2035.5,67 M0,109 L2035.5,109 M0,151 L2035.5,151 M0,193 L2035.5,193 M0,235 L2035.5,235 M0,277 L2035.5,277 M0,319 L2035.5,319 M0,361 L2035.5,361 M0,403 L2035.5,403 M0,445 L2035.5,445 M0,487 L2035.5,487 M0,529 L2035.5,529 M0,571 L2035.5,571 M0,613 L2035.5,613 M0,655 L2035.5,655 M0,697 L2035.5,697 M0,739 L2035.5,739 M0,781 L2035.5,781 M0,823 L2035.5,823 M0,865 L2035.5,865 M0,907 L2035.5,907 M0,949 L2035.5,949 M0,992 L2035.5,992 M0,1033 L2035.5,1033 M0,1075 L2035.5,1075 M0,1117 L2035.5,1117 M0,1159 L2035.5,1159 M0,1201 L2035.5,1201 M0,1243 L2035.5,1243 M0,1285 L2035.5,1285 M424,0 L424,2296 M508,0 L508,2296 M550,0 L550,2296 M592,0 L592,2296 M256,0 L256,2296 M298,0 L298,2296 M340,0 L340,2296 M382,0 L382,2296 M88,0 L88,2296 M46,0 L46,2296 M130,0 L130,2296 M172,0 L172,2296 M214,0 L214,2296 M634,0 L634,2296 M676,0 L676,2296 M718,0 L718,2296 M760,0 L760,2296 M802,0 L802,2296 M844,0 L844,2296 M886,0 L886,2296 M928,0 L928,2296 M970,0 L970,2296 M1012,0 L1012,2296 M1054,0 L1054,2296 M1096,0 L1096,2296 M1138,0 L1138,2296 M1180,0 L1180,2296 M1222,0 L1222,2296 M1264,0 L1264,2296 M1306,0 L1306,2296 M1348,0 L1348,2296 M1390,0 L1390,2296 M1432,0 L1432,2296 M1474,0 L1474,2296 M1516,0 L1516,2296 M1558,0 L1558,2296 M1600,0 L1600,2296 M1642,0 L1642,2296 M1684,0 L1684,2296 M1726,0 L1726,2296 M1768,0 L1768,2296 M1810,0 L1810,2296 M1852,0 L1852,2296 M1894,0 L1894,2296" id="Combined-Shape"></path>
            </g>
        </g>
    </g>
</svg>