<?xml version="1.0" encoding="UTF-8"?>
<svg width="590px" height="590px" viewBox="0 0 590 590" version="1.1" xmlns="http://www.w3.org/2000/svg" xmlns:xlink="http://www.w3.org/1999/xlink">
    <title>website/src/icons/crankrange_arrow</title>
    <g id="Page-1" stroke="none" stroke-width="1" fill="none" fill-rule="evenodd">
        <g id="arrow" fill="#FBCB68">
            <path d="M558.024554,384.039358 L558.024554,404.058358 L564.740436,404.05909 C565.788886,404.05909 566.792236,404.470564 567.537484,405.199617 L567.693152,405.36067 C569.183448,406.991409 569.069597,409.521509 567.438857,411.011805 L541.198416,434.992358 C539.670444,436.388737 537.329547,436.388737 535.801575,434.992358 L509.561134,411.011805 C508.731909,410.253995 508.259554,409.182429 508.259554,408.05909 C508.259554,405.849951 510.050415,404.05909 512.259554,404.05909 L518.974554,404.058358 L518.974554,384.039358 L558.024554,384.039358 Z M558.024554,346.987358 L558.024554,379.039358 L518.974554,379.039358 L518.974554,346.987358 L558.024554,346.987358 Z M558.024554,310.977358 L558.024554,341.987358 L518.974554,341.987358 L518.974554,310.977358 L558.024554,310.977358 Z M558.024554,272.926358 L558.024554,305.977358 L518.974554,305.977358 L518.974554,272.926358 L558.024554,272.926358 Z M558.024554,235.874358 L558.024554,267.926358 L518.974554,267.926358 L518.974554,235.874358 L558.024554,235.874358 Z M541.198416,182.007643 L567.438857,205.988195 C569.069597,207.478492 569.183448,210.008591 567.693152,211.639331 C566.935342,212.468556 565.863775,212.940911 564.740436,212.940911 L558.024554,212.940358 L558.024554,230.874358 L518.974554,230.874358 L518.974554,212.940358 L512.259554,212.940911 C510.050415,212.940911 508.259554,211.15005 508.259554,208.940911 C508.259554,207.817572 508.731909,206.746005 509.561134,205.988195 L535.801575,182.007643 C537.329547,180.611263 539.670444,180.611263 541.198416,182.007643 Z" transform="translate(538.500008, 308.500000) rotate(2.500000) translate(-538.500008, -308.500000) "></path>
        </g>
    </g>
</svg>