<svg xmlns="http://www.w3.org/2000/svg" width="42" height="42" viewBox="0 0 42 42">
  <g fill="none" fill-rule="evenodd">
    <rect width="42" height="42" fill="#000" rx="21"/>
    <g transform="translate(8 10)">
      <path fill="#FFF" d="M2,15 C0.8954305,15 0,14.1045695 0,13 L0,9 C0,7.8954305 0.8954305,7 2,7 L3.5,7 L9.79289322,0.707106781 C10.2456461,0.254353913 10.8597108,1.17619226e-16 11.5,0 L11.5,0 L11.5,0 C13.9852814,0 16,4.92486775 16,11 C16,16.9646753 14.0578778,21.8205336 11.6350848,21.9951385 C10.9086383,21.9982498 10.2110464,21.7110464 9.69736645,21.1973664 L3.5,15 L3.5,15 L2,15 Z"/>
      <path fill="#000" d="M11.15368,8.00336225 L11,8 C12.6568542,8 14,9.34314575 14,11 C14,12.6053701 12.7390297,13.9162248 11.1535129,13.9961402 C11.0343206,13.0600385 10.9680296,12.0482381 10.9680296,11 C10.9680296,9.9517257 11.0343285,8.9398996 11.15368,8.00336225 Z"/>
      <path stroke="#FFF" stroke-linecap="round" stroke-width="2" d="M20.9715896,19.8665244 C23.3659856,18.1964382 25,14.8526488 25,11 C25,7.14552673 23.3644376,3.80039489 20.9681874,2.13110406"/>
      <path stroke="#000" stroke-linecap="round" stroke-width="2" d="M8.9698751,19.8665244 C10.1576267,18.1964382 10.9681874,14.8526488 10.9681874,11 C10.9681874,7.14552673 10.1568588,3.80039489 8.9681874,2.13110406" transform="matrix(-1 0 0 1 19.936 0)"/>
      <path stroke="#FFF" stroke-linecap="round" stroke-width="2" d="M18.8493565,15.9988142 C20.1994209,15.0571471 21.1207492,13.1717735 21.1207492,10.9994828 C21.1207492,8.82616343 20.1985481,6.94003286 18.8474382,5.99881422"/>
    </g>
  </g>
</svg>
