<?xml version="1.0" encoding="UTF-8"?>
<svg width="42px" height="42px" viewBox="0 0 42 42" version="1.1" xmlns="http://www.w3.org/2000/svg" xmlns:xlink="http://www.w3.org/1999/xlink">
    <title>website/src/icons/icon_volume_off</title>
    <g id="Page-1" stroke="none" stroke-width="1" fill="none" fill-rule="evenodd">
        <g id="player-icons" transform="translate(-43.000000, -44.000000)">
            <g id="website/src/icons/icon_volume_off" transform="translate(43.000000, 44.000000)">
                <rect id="bg" fill="#000000" x="0" y="0" width="42" height="42" rx="21"></rect>
                <g id="Group" transform="translate(8.000000, 10.000000)">
                    <path d="M2,15 C0.8954305,15 0,14.1045695 0,13 L0,9 C0,7.8954305 0.8954305,7 2,7 L3.5,7 L9.79289322,0.707106781 C10.2456461,0.254353913 10.8597108,1.17619226e-16 11.5,0 L11.5,0 L11.5,0 C13.9852814,0 16,4.92486775 16,11 C16,16.9646753 14.0578778,21.8205336 11.6350848,21.9951385 C10.9086383,21.9982498 10.2110464,21.7110464 9.69736645,21.1973664 L3.5,15 L3.5,15 L2,15 Z" id="Path" fill="#B3B5C1"></path>
                    <path d="M11.15368,8.00336225 L11,8 C12.6568542,8 14,9.34314575 14,11 C14,12.6053701 12.7390297,13.9162248 11.1535129,13.9961402 C11.0343206,13.0600385 10.9680296,12.0482381 10.9680296,11 C10.9680296,9.9517257 11.0343285,8.9398996 11.15368,8.00336225 Z" id="Combined-Shape" fill="#000000"></path>
                    <path d="M8.9698751,19.8665244 C10.1576267,18.1964382 10.9681874,14.8526488 10.9681874,11 C10.9681874,7.14552673 10.1568588,3.80039489 8.9681874,2.13110406" id="Path-Copy-2" stroke="#000000" stroke-width="2" stroke-linecap="round" transform="translate(9.968187, 10.998814) scale(-1, 1) translate(-9.968187, -10.998814) "></path>
                    <line x1="25" y1="14" x2="19" y2="8" id="Path" stroke="#FFFFFF" stroke-width="2" stroke-linecap="round"></line>
                    <line x1="25" y1="14" x2="19" y2="8" id="Path-Copy-4" stroke="#FFFFFF" stroke-width="2" stroke-linecap="round" transform="translate(22.000000, 11.000000) scale(-1, 1) translate(-22.000000, -11.000000) "></line>
                </g>
            </g>
        </g>
    </g>
</svg>