<?xml version="1.0" encoding="UTF-8"?>
<svg width="22px" height="21px" viewBox="0 0 22 21" version="1.1" xmlns="http://www.w3.org/2000/svg" xmlns:xlink="http://www.w3.org/1999/xlink">
    <title>website/src/icons/icon_rating</title>
    <g id="Page-1" stroke="none" stroke-width="1" fill="none" fill-rule="evenodd">
        <g id="Artboard" transform="translate(-569.000000, -2306.000000)" fill="#FFC48A" fill-rule="nonzero">
            <g id="website/src/icons/icon_rating" transform="translate(569.007118, 2306.001382)">
                <path d="M19.1058614,7.16740081 C18.8406883,6.93491453 18.5407809,6.74533826 18.2170143,6.6055463 C18.1304115,6.56967257 18.030509,6.59827507 17.9760137,6.67454576 C17.9215183,6.75081644 17.9268334,6.85459682 17.9888355,6.92490116 C18.5335959,7.5812265 18.915086,8.35729386 19.1020425,9.18950422 C19.2400926,9.67047638 19.2663805,10.1766396 19.1788977,10.6693249 C19.0662404,11.1758055 18.5330276,12.0913849 17.9095935,11.9940032 C17.6975747,11.9480799 17.5014474,11.8469698 17.3410559,11.7009032 C16.7204859,11.1920358 16.2689019,10.2993698 15.7538288,9.66161476 C15.2117494,8.93969399 14.5556981,8.31089079 13.8114448,7.79990483 C12.9044579,7.22134266 11.8490116,6.9950733 11.1253315,6.15014341 C10.2379164,5.11379154 10.1128477,3.65640681 9.43117547,2.50119193 C8.93901574,1.66724135 8.01197966,0.687218147 6.98087878,0.770756414 C6.69446186,0.793669767 6.42618469,0.961701023 6.13212999,0.988433268 C5.59531537,1.01677466 5.0603956,0.904558334 4.58022768,0.66287271 C4.18308583,0.470775091 3.77467098,0.302913715 3.35722746,0.160211027 C2.434965,-0.114749209 1.36853936,-0.0913584949 0.675887794,0.675284109 C0.253422847,1.1430984 0.645336656,1.79326479 1.03199949,2.16226525 C1.44357152,2.53009798 1.96222527,2.75629794 2.51182021,2.80765803 L2.25690915,3.21389268 C2.20144864,3.30270359 2.22785417,3.41961196 2.31610198,3.47596416 L2.63641156,3.67836544 C2.725022,3.73318348 2.84121867,3.70684274 2.89752832,3.61917262 L3.2884874,2.99860264 C3.6480617,3.14969476 3.98532818,3.34916379 4.2909466,3.59148565 C4.36493764,3.64924639 4.45993258,3.71798645 4.56161058,3.79197749 L4.23079905,4.2173066 C4.16689137,4.30001497 4.18135901,4.41873472 4.26325963,4.48367433 L4.56208794,4.71758148 C4.60154802,4.74868009 4.65181024,4.76269818 4.70166939,4.75651062 C4.75152855,4.75032307 4.79683954,4.72444427 4.82750095,4.68464353 L5.15878985,4.25931442 C5.40387308,4.44176216 5.58861254,4.69351332 5.6891385,4.98203976 C5.87483213,4.89515996 5.2561716,5.9405817 3.68422011,5.08180832 C3.55533249,5.01115881 3.43169586,4.94576029 3.31235548,4.88322593 L3.6073649,4.41254747 C3.66282542,4.32373656 3.63641988,4.20682818 3.54817207,4.15047599 L3.22738513,3.94855207 C3.1386516,3.89382325 3.02242255,3.92038382 2.96626838,4.00822226 L2.63211531,4.54048035 C2.18053131,4.31993933 1.81057613,4.14856654 1.49981378,3.97432959 L1.75377011,3.37905977 C1.79466678,3.28256206 1.75013903,3.17113615 1.65400155,3.12939969 L1.306005,2.97998554 C1.20976858,2.93971908 1.09902843,2.98414267 1.05729965,3.0797541 L0.850602111,3.56570813 C0.581847574,3.41629397 0.247694509,3.30602346 0.0810953374,3.56570813 C-0.317978895,4.19057436 0.860626703,5.1204746 1.33942031,5.24267915 C1.77118483,5.28413222 2.18002567,5.45632832 2.51134285,5.73627097 C2.88515448,6.06559849 3.30186223,6.34276134 3.750096,6.56019695 C4.14610444,6.7967574 4.61004373,6.89357951 5.0676138,6.83515719 C5.88151519,6.72106779 6.52690797,6.8623668 6.99567698,7.59511673 C7.00617894,7.61134702 7.01620353,7.62805468 7.02575076,7.64285288 C7.19932764,7.92105101 7.26139106,8.25455663 7.19951035,8.57657202 C7.1828027,8.6500857 7.16848185,8.72455409 7.15559309,8.79902249 L7.15559309,8.79902249 C7.15559309,8.80379611 7.15559309,8.80856972 7.15559309,8.81334334 C7.14795531,8.85630587 7.14127225,8.89926841 7.13458919,8.94223095 C7.11361318,9.10602788 7.0059606,9.24579378 6.85294589,9.30788987 C6.66760873,9.38710625 6.4629304,9.40953448 6.26483649,9.37233368 L5.52969975,9.37233368 C5.20233046,9.3300776 4.8720804,9.42529884 4.61746188,9.63535988 C4.43244875,9.86805763 4.40986585,10.1906705 4.56065586,10.4468745 C4.71573989,10.6962537 4.9623225,10.874979 5.24757909,10.9447625 C5.34797762,10.9796319 5.45615434,10.9855866 5.55977353,10.9619475 C5.66510756,10.9348752 5.74174111,10.8440645 5.75071813,10.7356782 C5.74107781,10.6615216 5.71811358,10.5897179 5.6829328,10.5237297 C5.6509789,10.4377761 5.64209159,10.344953 5.65715528,10.2544978 C5.66055427,10.2027933 5.68815756,10.1557261 5.73162367,10.1275196 C5.78759682,10.1114237 5.84776625,10.1197469 5.89726812,10.150433 C6.2812809,10.3095435 6.70256764,10.3563899 7.11215319,10.2855263 C7.1462922,10.6184132 7.20905883,10.9477384 7.29975627,11.2698457 C7.27254667,11.2698457 7.24342761,11.2698457 7.21335384,11.2698457 L6.47821709,11.2698457 C6.15082113,11.2272389 5.82043359,11.3224998 5.56597923,11.5328719 C5.38030114,11.7653107 5.35768865,12.0883463 5.5091732,12.3443865 C5.66346483,12.59288 5.90878264,12.7712151 6.1927549,12.8413199 C6.29315344,12.8761893 6.40133016,12.8821439 6.50494934,12.8585049 C6.61020282,12.8313044 6.68677702,12.7405639 6.69589395,12.6322355 C6.68584264,12.5581074 6.66273088,12.4863478 6.62763125,12.420287 C6.59567735,12.3343334 6.58679004,12.2415104 6.60185373,12.1510551 C6.60547289,12.0994185 6.63302274,12.0524424 6.67632213,12.0240769 C6.73245495,12.0080216 6.79275346,12.0163386 6.84244393,12.0469903 C7.13859518,12.2067398 7.45778456,12.3194707 7.78857447,12.3811434 C8.03393829,12.8881013 8.25734349,13.6122587 8.51225454,14.0958259 C8.8451039,14.6891025 9.37029804,15.1511521 10.0011451,15.405706 C10.0435442,15.8173622 10.1184047,16.2250247 10.2250277,16.6248873 C10.5319711,17.3853242 10.5501109,17.9366767 11.2203265,18.4970992 C11.0861879,18.3849192 10.5128767,18.6379208 10.348187,18.6512869 C9.91378797,18.6861343 9.18915318,18.36487 8.82683578,18.6465133 C8.75228685,18.7084221 8.69120316,18.7849391 8.64734785,18.8713506 C8.55031972,19.0245231 8.51788212,19.2098808 8.55712652,19.386901 C8.6049149,19.5664531 8.78579797,19.6763727 8.96718007,19.6360838 C9.01618437,19.6141325 9.06398788,19.5895934 9.11038853,19.5625701 C9.47366064,19.3911973 9.78346827,20.0342033 10.129078,20.0342033 C11.714873,20.0342033 12.0065409,19.9602122 12.3636073,19.1434467 C12.5255383,18.6890475 12.6108742,18.2109086 12.6161315,17.7285471 C12.6476374,17.3313823 12.6237693,16.2062412 12.6820074,15.8119406 C13.4013912,15.8668372 14.0391462,16.1317728 14.6334613,16.0635101 C15.1007983,16.8497246 15.3366149,17.6607618 16.1710428,18.1639008 C16.0044436,18.0636549 15.4144248,18.4402932 15.2349369,18.4832557 C14.7618716,18.5963904 13.9083492,18.3677342 13.555579,18.7381667 C13.4837678,18.8193586 13.4293444,18.9143964 13.3956629,19.0174232 C13.3148258,19.2028336 13.3105363,19.4126774 13.3837289,19.6012364 C13.4670596,19.7912648 13.6855257,19.8816428 13.8787528,19.8060245 C13.9295784,19.7735154 13.9785078,19.7381332 14.0253028,19.7000502 C14.39669,19.448958 14.8435004,20.0466147 15.2292085,20.0466147 C17.0064255,20.0466147 17.2880688,19.6437215 17.5434572,18.6818381 C17.6445616,18.1527978 17.6574654,17.6106775 17.5816461,17.077426 C17.5450484,16.5758782 17.527386,16.0732165 17.528659,15.569441 C17.5315231,14.695392 18.2270389,14.4237733 18.8862751,14.0733899 C19.6462716,13.7231518 20.2663603,13.1274429 20.6467844,12.3820981 C21.5805036,10.3428097 20.5231478,8.51308294 19.1058614,7.16740081 Z M6.8305099,2.46777662 C6.63253003,2.76492696 6.29018447,2.93281847 5.93402496,2.90742659 C5.6829328,2.84441487 5.29292843,2.49307679 5.44377468,2.22145808 C5.64309492,1.96413993 5.9549372,1.81961029 6.28011206,1.83384052 C6.44786688,1.81074355 6.61594213,1.87391114 6.72695994,2.00177901 C6.83797776,2.12964689 6.87692655,2.30492503 6.8305099,2.46777662 L6.8305099,2.46777662 Z" id="appropriate.svg"></path>
            </g>
        </g>
    </g>
</svg>