<svg xmlns="http://www.w3.org/2000/svg" xmlns:xlink="http://www.w3.org/1999/xlink" width="71" height="75" viewBox="0 0 71 75">
  <defs>
    <rect id="icon_pause-b" width="58" height="58" x="0" y="0" rx="29"/>
    <filter id="icon_pause-a" width="127.6%" height="136.2%" x="-13.8%" y="-13.8%" filterUnits="objectBoundingBox">
      <feMorphology in="SourceAlpha" operator="dilate" radius=".5" result="shadowSpreadOuter1"/>
      <feOffset in="shadowSpreadOuter1" result="shadowOffsetOuter1"/>
      <feGaussianBlur in="shadowOffsetOuter1" result="shadowBlurOuter1" stdDeviation="1.5"/>
      <feComposite in="shadowBlurOuter1" in2="SourceAlpha" operator="out" result="shadowBlurOuter1"/>
      <feColorMatrix in="shadowBlurOuter1" result="shadowMatrixOuter1" values="0 0 0 0 0.31372549   0 0 0 0 0.321568627   0 0 0 0 0.364705882  0 0 0 0.16 0"/>
      <feOffset dy="6" in="SourceAlpha" result="shadowOffsetOuter2"/>
      <feGaussianBlur in="shadowOffsetOuter2" result="shadowBlurOuter2" stdDeviation="1"/>
      <feComposite in="shadowBlurOuter2" in2="SourceAlpha" operator="out" result="shadowBlurOuter2"/>
      <feColorMatrix in="shadowBlurOuter2" result="shadowMatrixOuter2" values="0 0 0 0 0.188235294   0 0 0 0 0.196078431   0 0 0 0 0.243137255  0 0 0 0.13 0"/>
      <feMerge>
        <feMergeNode in="shadowMatrixOuter1"/>
        <feMergeNode in="shadowMatrixOuter2"/>
      </feMerge>
    </filter>
    <path id="icon_pause-d" d="M25.8513979,15.1013979 C37.72552,15.1013979 47.3513979,24.7272758 47.3513979,36.6013979 C47.3513979,48.47552 37.72552,58.1013979 25.8513979,58.1013979"/>
    <filter id="icon_pause-c" width="183.7%" height="153.5%" x="-41.9%" y="-20.9%" filterUnits="objectBoundingBox">
      <feMorphology in="SourceAlpha" operator="dilate" radius="2" result="shadowSpreadOuter1"/>
      <feOffset in="shadowSpreadOuter1" result="shadowOffsetOuter1"/>
      <feMorphology in="SourceAlpha" radius="2" result="shadowInner"/>
      <feOffset in="shadowInner" result="shadowInner"/>
      <feComposite in="shadowOffsetOuter1" in2="shadowInner" operator="out" result="shadowOffsetOuter1"/>
      <feGaussianBlur in="shadowOffsetOuter1" result="shadowBlurOuter1" stdDeviation="1.5"/>
      <feColorMatrix in="shadowBlurOuter1" result="shadowMatrixOuter1" values="0 0 0 0 0.31372549   0 0 0 0 0.321568627   0 0 0 0 0.364705882  0 0 0 0.16 0"/>
      <feMorphology in="SourceAlpha" operator="dilate" radius="1.5" result="shadowSpreadOuter2"/>
      <feOffset dy="6" in="shadowSpreadOuter2" result="shadowOffsetOuter2"/>
      <feMorphology in="SourceAlpha" radius="1.5" result="shadowInner"/>
      <feOffset dy="6" in="shadowInner" result="shadowInner"/>
      <feComposite in="shadowOffsetOuter2" in2="shadowInner" operator="out" result="shadowOffsetOuter2"/>
      <feGaussianBlur in="shadowOffsetOuter2" result="shadowBlurOuter2" stdDeviation="1"/>
      <feColorMatrix in="shadowBlurOuter2" result="shadowMatrixOuter2" values="0 0 0 0 0.188235294   0 0 0 0 0.196078431   0 0 0 0 0.243137255  0 0 0 0.13 0"/>
      <feMerge>
        <feMergeNode in="shadowMatrixOuter1"/>
        <feMergeNode in="shadowMatrixOuter2"/>
      </feMerge>
    </filter>
  </defs>
  <g fill="none" fill-rule="evenodd" transform="translate(4 4)">
    <use fill="#000" filter="url(#icon_pause-a)" xlink:href="#icon_pause-b"/>
    <rect width="49" height="49" x="4.5" y="4.5" fill="#000" stroke="#FFF" stroke-linejoin="square" stroke-width="9" rx="24.5"/>
    <rect width="52" height="52" x="3" y="3" stroke="#000" stroke-linejoin="square" stroke-width="6" rx="26"/>
    <g transform="rotate(45 36.601 36.601)">
      <use fill="#000" filter="url(#icon_pause-c)" xlink:href="#icon_pause-d"/>
      <use stroke="#B3B5C1" stroke-width="3" xlink:href="#icon_pause-d"/>
    </g>
    <path fill="#FFF" d="M23 20L24 20C25.1045695 20 26 20.8954305 26 22L26 36C26 37.1045695 25.1045695 38 24 38L23 38C21.8954305 38 21 37.1045695 21 36L21 22C21 20.8954305 21.8954305 20 23 20zM34 20L35 20C36.1045695 20 37 20.8954305 37 22L37 36C37 37.1045695 36.1045695 38 35 38L34 38C32.8954305 38 32 37.1045695 32 36L32 22C32 20.8954305 32.8954305 20 34 20z"/>
  </g>
</svg>
