<svg xmlns="http://www.w3.org/2000/svg" width="180" height="73" viewBox="0 0 180 73">
  <g fill="none" fill-rule="evenodd">
    <rect width="4.5" height="5" x="144" y="13.5" fill="#C8CCE2" rx="1"/>
    <path fill="#000" stroke="#000" stroke-width="2" d="M117,13 L140,13 L140,13 L147.5,13 C149.122777,13 150.701779,13.526334 152,14.5 L152.8,15.1 C153.555418,15.6665631 154,16.5557281 154,17.5 L154,52 C154,53.6568542 152.656854,55 151,55 L117,55 C115.343146,55 114,53.6568542 114,52 L114,16 C114,14.3431458 115.343146,13 117,13 Z"/>
    <path fill="#FFF" stroke="#000" stroke-width="2" d="M117,13 L149,13 C151.209139,13 153,14.790861 153,17 L153,51 C153,53.209139 151.209139,55 149,55 L117,55 C114.790861,55 113,53.209139 113,51 L113,17 C113,14.790861 114.790861,13 117,13 Z"/>
    <path fill="#FFF" stroke="#000" stroke-width="2" d="M117,16 L144,16 C144.552285,16 145,16.4477153 145,17 L145,34 C145,34.5522847 144.552285,35 144,35 L117,35 C116.447715,35 116,34.5522847 116,34 L116,17 C116,16.4477153 116.447715,16 117,16 Z"/>
    <path fill="#000" d="M1,0 C1.55228475,0 2,0.44771525 2,1 L2,6.5 C2,7.05228475 1.55228475,7.5 1,7.5 C0.44771525,7.5 0,7.05228475 0,6.5 L0,1 C0,0.44771525 0.44771525,0 1,0 Z" transform="translate(148 23.5)"/>
    <path fill="#FFF" stroke="#000" stroke-width="2" d="M153.5 25.25L157.5 25.25C157.223858 25.25 157 25.4738576 157 25.75L157 36.5C157 37.4664983 156 38.5 155 38.5 154 38.5 153 37.4664983 153 36.5L153 25.75C153 25.4738576 153.223858 25.25 153.5 25.25zM158.5 23.5L163 23.5C163.552285 23.5 164 23.9477153 164 24.5L164 27.5C164 28.0522847 163.552285 28.5 163 28.5L158.5 28.5C157.947715 28.5 157.5 28.0522847 157.5 27.5L157.5 24.5C157.5 23.9477153 157.947715 23.5 158.5 23.5z"/>
    <path fill="#000" d="M123,39 C123.828427,39 124.5,39.6715729 124.5,40.5 L124.499,42.5 L126.5,42.5 C127.328427,42.5 128,43.1715729 128,44 C128,44.8284271 127.328427,45.5 126.5,45.5 L124.499,45.5 L124.5,47.5 C124.5,48.3284271 123.828427,49 123,49 C122.171573,49 121.5,48.3284271 121.5,47.5 L121.499,45.5 L119.5,45.5 C118.671573,45.5 118,44.8284271 118,44 C118,43.1715729 118.671573,42.5 119.5,42.5 L121.499,42.5 L121.5,40.5 C121.5,39.6715729 122.171573,39 123,39 Z M143.25,39 C144.492641,39 145.5,40.0073593 145.5,41.25 C145.5,42.4926407 144.492641,43.5 143.25,43.5 C142.007359,43.5 141,42.4926407 141,41.25 C141,40.0073593 142.007359,39 143.25,39 Z M135.25,39 C136.492641,39 137.5,40.0073593 137.5,41.25 C137.5,42.4926407 136.492641,43.5 135.25,43.5 C134.007359,43.5 133,42.4926407 133,41.25 C133,40.0073593 134.007359,39 135.25,39 Z"/>
    <path fill="#FFF" stroke="#000" stroke-width="2" d="M84.5656702,26.3630326 L84.8041112,26.3253412 C86.7383496,26.0195878 88.6703276,26.8867555 89.7274366,28.5351741 L89.9238602,28.8414702 L89.9238602,28.8414702 L90.2223559,28.410147 C91.3165305,26.8290764 93.2222176,26.0179124 95.1202402,26.3253412 L95.2838412,26.3518402 C97.0136399,26.6320212 98.3308214,28.0534428 98.4786989,29.7995347 C98.6374448,31.673958 97.9213741,33.5165949 96.5385833,34.7919586 L90.6725956,40.2022259 C90.2920672,40.5531916 89.7065955,40.5557287 89.3230396,40.2080742 L83.3265745,34.7728872 C81.9343479,33.5109751 81.2104539,31.6718523 81.3690215,29.7995347 C81.516776,28.0548945 82.8362579,26.6364082 84.5656702,26.3630326 Z"/>
    <path stroke="#000" stroke-width="1.5" d="M149,15.75 C149.345178,15.75 149.657678,15.889911 149.883883,16.1161165 C150.110089,16.342322 150.25,16.654822 150.25,17 C150.25,17.345178 150.110089,17.657678 149.883883,17.8838835 C149.657678,18.110089 149.345178,18.25 149,18.25 C148.654822,18.25 148.342322,18.110089 148.116117,17.8838835 C147.889911,17.657678 147.75,17.345178 147.75,17 C147.75,16.654822 147.889911,16.342322 148.116117,16.1161165 C148.342322,15.889911 148.654822,15.75 149,15.75 Z"/>
    <circle cx="149" cy="21.5" r="1.5" fill="#000"/>
    <path fill="#000" d="M71.2699839,2.08097532 L72.3194886,2.99075494 C72.7577103,3.37063432 73.0094557,3.92203024 73.0094557,4.50198421 L73.0089557,32.9554753 L73.0790509,33 C73.6583267,33.3666303 74,33.8144504 74,34.5 L74,69 C74,70.1045695 73.1045695,71 72,71 L9.41186741,71 C9.14014012,71 8.87126262,70.9446291 8.62164489,70.8372665 L6,69.7096768 L71.2699557,33.2204753 L71.2699839,2.08097532 Z"/>
    <circle cx="149" cy="51" r="1.25" stroke="#000" stroke-width="1.5"/>
    <circle cx="117" cy="51" r="1.25" stroke="#000" stroke-width="1.5"/>
    <path fill="#FFF" stroke="#000" stroke-width="2" d="M70,1 C71.1045695,1 72,1.8954305 72,3 L72,68 C72,69.1045695 71.1045695,70 70,70 L7,70 C5.8954305,70 5,69.1045695 5,68 L5,38.25 C4.4172018,37.9069851 4,36.5887565 4,35.5 C4,34.4112435 4.4172018,33.0930149 5,32.75 L5,3 C5,1.8954305 5.8954305,1 7,1 L70,1 Z"/>
    <path stroke="#000" stroke-width="2" d="M24 5L53 5C53.5522847 5 54 5.44771525 54 6L54 28C54 28.5522847 53.5522847 29 53 29L24 29C23.4477153 29 23 28.5522847 23 28L23 6C23 5.44771525 23.4477153 5 24 5zM24 42L53 42C53.5522847 42 54 42.4477153 54 43L54 65C54 65.5522847 53.5522847 66 53 66L24 66C23.4477153 66 23 65.5522847 23 65L23 43C23 42.4477153 23.4477153 42 24 42z"/>
    <line x1="5" x2="72" y1="33" y2="33" stroke="#000" stroke-width="2"/>
    <line x1="8.287" x2="8.25" y1="34.75" y2="36.25" stroke="#000" stroke-linecap="round" stroke-linejoin="round"/>
    <line x1="9.787" x2="9.75" y1="34.75" y2="36.25" stroke="#000" stroke-linecap="round" stroke-linejoin="round"/>
    <line x1="11.287" x2="11.25" y1="34.75" y2="36.25" stroke="#000" stroke-linecap="round" stroke-linejoin="round"/>
    <line x1="72" x2="5" y1="38" y2="38" stroke="#000" stroke-width="2"/>
    <path fill="#000" d="M6,8 C7.1045695,8 8,8.8954305 8,10 C8,11.1045695 7.1045695,12 6,12 C4.8954305,12 4,11.1045695 4,10 C4,8.8954305 4.8954305,8 6,8 Z M10,4 C11.1045695,4 12,4.8954305 12,6 C12,7.1045695 11.1045695,8 10,8 C8.8954305,8 8,7.1045695 8,6 C8,4.8954305 8.8954305,4 10,4 Z M2,4 C3.1045695,4 4,4.8954305 4,6 C4,7.1045695 3.1045695,8 2,8 C0.8954305,8 0,7.1045695 0,6 C0,4.8954305 0.8954305,4 2,4 Z M6,0 C7.1045695,0 8,0.8954305 8,2 C8,3.1045695 7.1045695,4 6,4 C4.8954305,4 4,3.1045695 4,2 C4,0.8954305 4.8954305,0 6,0 Z" transform="translate(57 44)"/>
    <circle cx="59.5" cy="60.5" r="1.5" fill="#000"/>
    <circle cx="59.5" cy="65.5" r="1.5" fill="#000"/>
    <circle cx="17.5" cy="65.5" r="1.5" fill="#000"/>
    <circle cx="38.5" cy="35.5" r="1.5" fill="#000"/>
    <circle cx="43.5" cy="35.5" r="1" fill="#000"/>
    <rect width="4" height="2" x="12" y="23" fill="#000" rx="1"/>
    <rect width="4" height="2" x="61" y="23" fill="#000" rx="1"/>
    <path fill="#000" d="M15.5,45.5 C15.7761424,45.5 16,45.7238576 16,46 L16,49 L19,49 C19.2761424,49 19.5,49.2238576 19.5,49.5 L19.5,51.5 C19.5,51.7761424 19.2761424,52 19,52 L16,52 L16,55 C16,55.2761424 15.7761424,55.5 15.5,55.5 L13.5,55.5 C13.2238576,55.5 13,55.2761424 13,55 L13,52 L10,52 C9.72385763,52 9.5,51.7761424 9.5,51.5 L9.5,49.5 C9.5,49.2238576 9.72385763,49 10,49 L13,49 L13,46 C13,45.7238576 13.2238576,45.5 13.5,45.5 L15.5,45.5 Z"/>
    <ellipse cx="71.5" cy="35.5" fill="#000" rx="1" ry="2.5"/>
    <path stroke="#000" stroke-width="2" d="M62.5 33C62 33 61.5 34.1192881 61.5 35.5 61.5 36.957738 62 38 62.5 38M16 33C15.5 33 15 34.1192881 15 35.5 15 36.957738 15.5 38 16 38"/>
  </g>
</svg>
