<?xml version="1.0" encoding="UTF-8"?>
<svg width="24px" height="24px" viewBox="0 0 24 24" version="1.1" xmlns="http://www.w3.org/2000/svg" xmlns:xlink="http://www.w3.org/1999/xlink">
    <title>website/src/icons/icon_accessibility</title>
    <g id="Page-1" stroke="none" stroke-width="1" fill="none" fill-rule="evenodd">
        <g id="Artboard" transform="translate(-568.000000, -2338.000000)" fill="#FFC48A">
            <g id="website/src/icons/icon_accessibility" transform="translate(568.000000, 2338.000000)">
                <path d="M12,24 C5.372583,24 0,18.627417 0,12 C0,5.372583 5.372583,0 12,0 C18.627417,0 24,5.372583 24,12 C24,18.627417 18.627417,24 12,24 Z M12,3.93866667 C12.950022,3.96413066 13.7020185,4.7504724 13.6850575,5.7006842 C13.6680966,6.650896 12.8885162,7.4098996 11.9381906,7.40144304 C10.9878651,7.39298648 10.2219152,6.62022983 10.2218667,5.66986667 C10.2350336,4.70087989 11.0310077,3.92591532 12,3.93866667 Z M18.0106667,10.3466667 C18.0106667,10.3466667 15.8458667,10.5066667 14.2106667,10.5178667 C14.0606047,10.5564637 13.9584726,10.6953901 13.9664,10.8501333 L13.9626667,10.8458667 L13.9626667,11.7786667 C13.9952,11.9546667 14.0266667,12.1349333 14.0570667,12.3216 C14.2522667,13.5194667 14.4693333,14.8981333 14.6405333,16.0906667 C14.8757333,17.736 14.9424,18.7653333 14.9424,18.7653333 C15.0272,19.2986667 14.8746667,19.7717333 14.4037333,19.8672 C13.9328,19.9626667 13.6426667,19.5781333 13.5578667,19.0474667 C13.2924128,18.1925332 13.0848321,17.3206942 12.9365333,16.4378667 C12.8261333,15.8154667 12.7130667,15.1408 12.6021333,14.4645333 C12.5873342,14.2696684 12.4514946,14.1052085 12.2629333,14.0538667 C12.1685333,14.0485333 12.0784,14.0394667 11.9786667,14.0394667 C11.8789333,14.0394667 11.7973333,14.0485333 11.7072,14.0533333 C11.5145417,14.1032079 11.3757584,14.271254 11.3632,14.4698667 L11.3632,14.4698667 C11.2517333,15.1424 11.1381333,15.8154667 11.0266667,16.4368 C10.8769189,17.3198625 10.6673701,18.1917354 10.3994667,19.0464 C10.3141333,19.5797333 10.0208,19.9621333 9.54613333,19.8661333 C9.07146667,19.7701333 8.9168,19.2949333 9.00266667,18.7642667 C9.00266667,18.7642667 9.06986667,17.7349333 9.30773333,16.0896 C9.47946667,14.8970667 9.6992,13.5184 9.8944,12.3205333 C9.9264,12.1246222 9.95964444,11.9351111 9.99413333,11.752 L9.99413333,10.8490667 C9.99180928,10.6500896 9.83045399,10.4896834 9.63146667,10.4885333 L9.63146667,10.4885333 L9.5472,10.4885333 L9.39253333,10.4885333 L9.544,10.4885333 C7.93333333,10.4448 5.98773333,10.3178667 5.98773333,10.3178667 C5.44,10.3178667 4.99573333,10.0677333 4.99573333,9.53706667 C4.99573333,9.0064 5.44,8.75573333 5.98773333,8.75573333 C5.98773333,8.75573333 7.936,8.62826667 9.56853333,8.58453333 C9.77866667,8.56213333 9.94613333,8.54933333 10.0346667,8.54933333 C11.2613333,8.52693333 12.7226667,8.54933333 13.9594667,8.55306667 C13.9594667,8.55306667 15.4085333,8.55733333 14.016,8.55306667 C15.7162667,8.56106667 18.0090667,8.72533333 18.0090667,8.72533333 C18.3376558,8.65829576 18.6742053,8.79628218 18.861159,9.0746941 C19.0481126,9.35310602 19.0484716,9.71684445 18.8620678,9.99562482 C18.6756639,10.2744052 18.3393875,10.4130556 18.0106667,10.3466667 L18.0106667,10.3466667 Z" id="accessibility.svg"></path>
            </g>
        </g>
    </g>
</svg>