<svg xmlns="http://www.w3.org/2000/svg" width="180" height="73" viewBox="0 0 180 73">
  <g fill="none" fill-rule="evenodd">
    <rect width="4.5" height="5" x="144" y="13.5" fill="#C8CCE2" rx="1"/>
    <path fill="#000" stroke="#000" stroke-width="2" d="M117,13 L140,13 L140,13 L147.5,13 C149.122777,13 150.701779,13.526334 152,14.5 L152.8,15.1 C153.555418,15.6665631 154,16.5557281 154,17.5 L154,52 C154,53.6568542 152.656854,55 151,55 L117,55 C115.343146,55 114,53.6568542 114,52 L114,16 C114,14.3431458 115.343146,13 117,13 Z"/>
    <path fill="#FFF" stroke="#000" stroke-width="2" d="M116,13 L149,13 C151.209139,13 153,14.790861 153,17 L153,51 C153,53.209139 151.209139,55 149,55 L116,55 C113.790861,55 112,53.209139 112,51 L112,17 C112,14.790861 113.790861,13 116,13 Z"/>
    <path fill="#B3B5C1" stroke="#000" stroke-width="2" d="M116,16 L144,16 C144.552285,16 145,16.4477153 145,17 L145,34 C145,34.5522847 144.552285,35 144,35 L116,35 C115.447715,35 115,34.5522847 115,34 L115,17 C115,16.4477153 115.447715,16 116,16 Z"/>
    <path fill="#000" d="M1,0 C1.55228475,0 2,0.417867567 2,0.933333333 L2,6.06666667 C2,6.58213243 1.55228475,7 1,7 C0.44771525,7 0,6.58213243 0,6.06666667 L0,0.933333333 C0,0.417867567 0.44771525,0 1,0 Z" transform="translate(148 24.5)"/>
    <path fill="#FFF" stroke="#000" stroke-width="2" d="M153.5 25.25L157.5 25.25C157.223858 25.25 157 25.4738576 157 25.75L157 36.5C157 37.4664983 156 38.5 155 38.5 154 38.5 153 37.4664983 153 36.5L153 25.75C153 25.4738576 153.223858 25.25 153.5 25.25zM158.5 23.5L163 23.5C163.552285 23.5 164 23.9477153 164 24.5L164 27.5C164 28.0522847 163.552285 28.5 163 28.5L158.5 28.5C157.947715 28.5 157.5 28.0522847 157.5 27.5L157.5 24.5C157.5 23.9477153 157.947715 23.5 158.5 23.5z"/>
    <path fill="#000" d="M122,39 C122.828427,39 123.5,39.6715729 123.5,40.5 L123.499,42.5 L125.5,42.5 C126.328427,42.5 127,43.1715729 127,44 C127,44.8284271 126.328427,45.5 125.5,45.5 L123.499,45.5 L123.5,47.5 C123.5,48.3284271 122.828427,49 122,49 C121.171573,49 120.5,48.3284271 120.5,47.5 L120.499,45.5 L118.5,45.5 C117.671573,45.5 117,44.8284271 117,44 C117,43.1715729 117.671573,42.5 118.5,42.5 L120.499,42.5 L120.5,40.5 C120.5,39.6715729 121.171573,39 122,39 Z M143.25,40 C144.492641,40 145.5,41.0073593 145.5,42.25 C145.5,43.4926407 144.492641,44.5 143.25,44.5 C142.007359,44.5 141,43.4926407 141,42.25 C141,41.0073593 142.007359,40 143.25,40 Z M135.25,40 C136.492641,40 137.5,41.0073593 137.5,42.25 C137.5,43.4926407 136.492641,44.5 135.25,44.5 C134.007359,44.5 133,43.4926407 133,42.25 C133,41.0073593 134.007359,40 135.25,40 Z"/>
    <path fill="#FFF" stroke="#000" stroke-width="2" d="M84.5656702,26.3630326 L84.8041112,26.3253412 C86.7383496,26.0195878 88.6703276,26.8867555 89.7274366,28.5351741 L89.9238602,28.8414702 L89.9238602,28.8414702 L90.2223559,28.410147 C91.3165305,26.8290764 93.2222176,26.0179124 95.1202402,26.3253412 L95.2838412,26.3518402 C97.0136399,26.6320212 98.3308214,28.0534428 98.4786989,29.7995347 C98.6374448,31.673958 97.9213741,33.5165949 96.5385833,34.7919586 L90.6725956,40.2022259 C90.2920672,40.5531916 89.7065955,40.5557287 89.3230396,40.2080742 L83.3265745,34.7728872 C81.9343479,33.5109751 81.2104539,31.6718523 81.3690215,29.7995347 C81.516776,28.0548945 82.8362579,26.6364082 84.5656702,26.3630326 Z"/>
    <path stroke="#000" stroke-width="1.5" d="M149,15.75 C149.345178,15.75 149.657678,15.889911 149.883883,16.1161165 C150.110089,16.342322 150.25,16.654822 150.25,17 C150.25,17.345178 150.110089,17.657678 149.883883,17.8838835 C149.657678,18.110089 149.345178,18.25 149,18.25 C148.654822,18.25 148.342322,18.110089 148.116117,17.8838835 C147.889911,17.657678 147.75,17.345178 147.75,17 C147.75,16.654822 147.889911,16.342322 148.116117,16.1161165 C148.342322,15.889911 148.654822,15.75 149,15.75 Z"/>
    <circle cx="149" cy="21.5" r="1.5" fill="#000"/>
    <path fill="#000" d="M68.2699839,2.08097532 L69.3194886,2.99075494 C69.7577103,3.37063432 70.0094557,3.92203024 70.0094557,4.50198421 L70.0089557,32.9554753 L70.0790509,33 C70.6583267,33.3666303 71,33.8144504 71,34.5 L71,69 C71,70.1045695 70.1045695,71 69,71 L6.41186741,71 C6.14014012,71 5.87126262,70.9446291 5.62164489,70.8372665 L3,69.7096768 L68.2699557,33.2204753 L68.2699839,2.08097532 Z"/>
    <circle cx="149" cy="51" r="1.25" stroke="#000" stroke-width="1.5"/>
    <circle cx="116" cy="51" r="1.25" stroke="#000" stroke-width="1.5"/>
    <path fill="#FFF" stroke="#000" stroke-width="2" d="M67,1 C68.1045695,1 69,1.8954305 69,3 L69,68 C69,69.1045695 68.1045695,70 67,70 L4,70 C2.8954305,70 2,69.1045695 2,68 L2,38.25 C1.4172018,37.9069851 1,36.5887565 1,35.5 C1,34.4112435 1.4172018,33.0930149 2,32.75 L2,3 C2,1.8954305 2.8954305,1 4,1 L67,1 Z"/>
    <path fill="#B3B5C1" stroke="#000" stroke-width="2" d="M21 5L50 5C50.5522847 5 51 5.44771525 51 6L51 28C51 28.5522847 50.5522847 29 50 29L21 29C20.4477153 29 20 28.5522847 20 28L20 6C20 5.44771525 20.4477153 5 21 5zM21 42L50 42C50.5522847 42 51 42.4477153 51 43L51 65C51 65.5522847 50.5522847 66 50 66L21 66C20.4477153 66 20 65.5522847 20 65L20 43C20 42.4477153 20.4477153 42 21 42z"/>
    <line x1="2" x2="69" y1="33" y2="33" stroke="#000" stroke-width="2"/>
    <line x1="5.287" x2="5.25" y1="34.75" y2="36.25" stroke="#000" stroke-linecap="round" stroke-linejoin="round"/>
    <line x1="6.787" x2="6.75" y1="34.75" y2="36.25" stroke="#000" stroke-linecap="round" stroke-linejoin="round"/>
    <line x1="8.287" x2="8.25" y1="34.75" y2="36.25" stroke="#000" stroke-linecap="round" stroke-linejoin="round"/>
    <line x1="69" x2="2" y1="38" y2="38" stroke="#000" stroke-width="2"/>
    <path fill="#000" d="M6,8 C7.1045695,8 8,8.8954305 8,10 C8,11.1045695 7.1045695,12 6,12 C4.8954305,12 4,11.1045695 4,10 C4,8.8954305 4.8954305,8 6,8 Z M10,4 C11.1045695,4 12,4.8954305 12,6 C12,7.1045695 11.1045695,8 10,8 C8.8954305,8 8,7.1045695 8,6 C8,4.8954305 8.8954305,4 10,4 Z M2,4 C3.1045695,4 4,4.8954305 4,6 C4,7.1045695 3.1045695,8 2,8 C0.8954305,8 0,7.1045695 0,6 C0,4.8954305 0.8954305,4 2,4 Z M6,0 C7.1045695,0 8,0.8954305 8,2 C8,3.1045695 7.1045695,4 6,4 C4.8954305,4 4,3.1045695 4,2 C4,0.8954305 4.8954305,0 6,0 Z" transform="translate(54 45)"/>
    <circle cx="56.5" cy="60.5" r="1.5" fill="#000"/>
    <circle cx="56.5" cy="65.5" r="1.5" fill="#000"/>
    <circle cx="14.5" cy="65.5" r="1.5" fill="#000"/>
    <circle cx="35.5" cy="35.5" r="1.5" fill="#000"/>
    <circle cx="40.5" cy="35.5" r="1" fill="#000"/>
    <rect width="4" height="2" x="9" y="23" fill="#000" rx="1"/>
    <rect width="4" height="2" x="58" y="23" fill="#000" rx="1"/>
    <path fill="#000" d="M11.5,46.5 C11.7761424,46.5 12,46.7238576 12,47 L12,50 L15,50 C15.2761424,50 15.5,50.2238576 15.5,50.5 L15.5,52.5 C15.5,52.7761424 15.2761424,53 15,53 L12,53 L12,56 C12,56.2761424 11.7761424,56.5 11.5,56.5 L9.5,56.5 C9.22385763,56.5 9,56.2761424 9,56 L9,53 L6,53 C5.72385763,53 5.5,52.7761424 5.5,52.5 L5.5,50.5 C5.5,50.2238576 5.72385763,50 6,50 L9,50 L9,47 C9,46.7238576 9.22385763,46.5 9.5,46.5 L11.5,46.5 Z"/>
    <ellipse cx="68.5" cy="35.5" fill="#000" rx="1" ry="2.5"/>
    <path stroke="#000" stroke-width="2" d="M59.5 33C59 33 58.5 34.1192881 58.5 35.5 58.5 36.957738 59 38 59.5 38M13 33C12.5 33 12 34.1192881 12 35.5 12 36.957738 12.5 38 13 38"/>
  </g>
</svg>
