<?xml version="1.0" encoding="UTF-8"?>
<svg width="24px" height="24px" viewBox="0 0 24 24" version="1.1" xmlns="http://www.w3.org/2000/svg" xmlns:xlink="http://www.w3.org/1999/xlink">
    <title>website/src/icons/icon_hint</title>
    <g id="Page-1" stroke="none" stroke-width="1" fill="none" fill-rule="evenodd">
        <g id="Artboard" transform="translate(-568.000000, -2269.000000)" fill="#FFC48A">
            <g id="Group-21" transform="translate(367.000000, 2004.502281)">
                <g id="Group-19" transform="translate(0.000000, 138.497719)">
                    <g id="website/src/icons/icon_hint" transform="translate(201.000000, 126.000000)">
                        <path d="M12,0 C18.627417,0 24,5.372583 24,12 C24,18.627417 18.627417,24 12,24 C5.372583,24 0,18.627417 0,12 C0,5.372583 5.372583,0 12,0 Z M12,16 C11.1715729,16 10.5,16.6715729 10.5,17.5 C10.5,18.3284271 11.1715729,19 12,19 C12.8284271,19 13.5,18.3284271 13.5,17.5 C13.5,16.6715729 12.8284271,16 12,16 Z M12.4194687,4.69637432 C10.1531607,4.69637432 8.33742434,6.02118938 8.25,8.44217122 L10.2943847,8.44217122 C10.3750841,7.01648191 11.3905514,6.39106161 12.4194687,6.39106161 C13.5627102,6.39106161 14.4907532,7.15098091 14.4907532,8.34129698 C14.4907532,9.34331446 13.8653329,10.0494342 13.0650639,10.5470804 C11.8142233,11.3137247 11.0744788,12.073644 11.0610289,14.5686003 L11.0610289,14.6963743 L12.9843645,14.6963743 L12.9843645,14.5686003 C13.0112643,13.0218619 13.455111,12.3291921 14.5983524,11.6230724 C15.8021184,10.8967778 16.5418628,9.87458548 16.5418628,8.36147183 C16.5418628,6.17586322 14.8875252,4.69637432 12.4194687,4.69637432 Z" id="Combined-Shape"></path>
                    </g>
                </g>
            </g>
        </g>
    </g>
</svg>