<?xml version="1.0" encoding="UTF-8"?>
<svg width="249px" height="109px" viewBox="0 0 249 109" version="1.1" xmlns="http://www.w3.org/2000/svg" xmlns:xlink="http://www.w3.org/1999/xlink">
    <title>website/src/icons/icon_footer</title>
    <g id="website/src/icons/icon_footer" stroke="none" stroke-width="1" fill="none" fill-rule="evenodd">
        <g id="Group" transform="translate(2.000000, 2.000000)">
            <rect id="Rectangle-Copy-157" fill="#C8CCE2" x="214.5" y="18.75" width="6.75" height="7.5" rx="1"></rect>
            <path d="M172.384701,19.38905 L208.5,18 L208.5,18 L219.75,18 C222.184165,18 224.552668,18.7895011 226.5,20.25 L228.3,21.6 C229.055418,22.1665631 229.5,23.0557281 229.5,24 L229.5,78.5 C229.5,80.709139 227.709139,82.5 225.5,82.5 L172.5,82.5 C170.843146,82.5 169.5,81.1568542 169.5,79.5 L169.5,22.3868335 C169.5,20.7748403 170.773898,19.4510039 172.384701,19.38905 Z" id="Rectangle-Copy-32" fill="#FB7F21"></path>
            <path d="M169.5,18 L225,18 C226.656854,18 228,19.3431458 228,21 L228,78 C228,79.6568542 226.656854,81 225,81 L169.5,81 C167.843146,81 166.5,79.6568542 166.5,78 L166.5,21 C166.5,19.3431458 167.843146,18 169.5,18 Z" id="Rectangle-Copy-31" fill="#FBCB68"></path>
            <path d="M217,20.25 C217.345178,20.25 217.657678,20.389911 217.883883,20.6161165 C218.110089,20.842322 218.25,21.154822 218.25,21.5 L218.25,50.5 C218.25,50.845178 218.110089,51.157678 217.883883,51.3838835 C217.657678,51.610089 217.345178,51.75 217,51.75 L170,51.75 C169.654822,51.75 169.342322,51.610089 169.116117,51.3838835 C168.889911,51.157678 168.75,50.845178 168.75,50.5 L168.75,21.5 C168.75,21.154822 168.889911,20.842322 169.116117,20.6161165 C169.342322,20.389911 169.654822,20.25 170,20.25 Z" id="Rectangle-Copy-159" stroke="#FB7F21" stroke-width="1.5" fill="#FB7F21"></path>
            <path d="M223.5,35.25 C224.328427,35.25 225,35.8768014 225,36.65 L225,44.35 C225,45.1231986 224.328427,45.75 223.5,45.75 C222.671573,45.75 222,45.1231986 222,44.35 L222,36.65 C222,35.8768014 222.671573,35.25 223.5,35.25 Z" id="Rectangle-Copy-160" fill="#FB7F21"></path>
            <path d="M228.75,33.375 L234.75,33.375 C234.335786,33.375 234,33.7107864 234,34.125 L234,50.25 C234,51.6997475 232.5,53.25 231,53.25 C229.5,53.25 228,51.6997475 228,50.25 L228,34.125 C228,33.7107864 228.335786,33.375 228.75,33.375 Z" id="Rectangle-Copy-12" fill="#FB7F21"></path>
            <path d="M236.25,30.75 L243,30.75 C243.828427,30.75 244.5,31.4215729 244.5,32.25 L244.5,36.75 C244.5,37.5784271 243.828427,38.25 243,38.25 L236.25,38.25 C235.421573,38.25 234.75,37.5784271 234.75,36.75 L234.75,32.25 C234.75,31.4215729 235.421573,30.75 236.25,30.75 Z" id="Rectangle-Copy-17" stroke="#FBCB68" stroke-width="2" fill="#FBCB68"></path>
            <path d="M181.5,57 C182.742641,57 183.75,58.0073593 183.75,59.25 L183.749,62.25 L186.75,62.25 C187.992641,62.25 189,63.2573593 189,64.5 C189,65.7426407 187.992641,66.75 186.75,66.75 L183.749,66.75 L183.75,69.75 C183.75,70.9926407 182.742641,72 181.5,72 C180.257359,72 179.25,70.9926407 179.25,69.75 L179.249,66.75 L176.25,66.75 C175.007359,66.75 174,65.7426407 174,64.5 C174,63.2573593 175.007359,62.25 176.25,62.25 L179.249,62.25 L179.25,59.25 C179.25,58.0073593 180.257359,57 181.5,57 Z M211.875,65.25 C213.738961,65.25 215.25,63.738961 215.25,61.875 C215.25,60.011039 213.738961,58.5 211.875,58.5 C210.011039,58.5 208.5,60.011039 208.5,61.875 C208.5,63.738961 210.011039,65.25 211.875,65.25 Z M199.875,65.25 C201.738961,65.25 203.25,63.738961 203.25,61.875 C203.25,60.011039 201.738961,58.5 199.875,58.5 C198.011039,58.5 196.5,60.011039 196.5,61.875 C196.5,63.738961 198.011039,65.25 199.875,65.25 Z" id="Combined-Shape" fill="#FB7F21"></path>
            <path d="M127.348505,38.0445489 L127.706167,37.9880118 C130.607524,37.5293818 133.505491,38.8301333 135.091155,41.3027612 L135.38579,41.7622053 L135.38579,41.7622053 L135.833534,41.1152206 C137.474796,38.7436146 140.333326,37.5268685 143.18036,37.9880118 L143.425762,38.0277603 C146.02046,38.4480318 147.996232,40.5801641 148.218048,43.1993021 C148.456167,46.010937 147.382061,48.7748924 145.307875,50.6879379 L136.172841,59.1132836 C135.792313,59.4642493 135.206841,59.4667864 134.823285,59.1191319 L125.489862,50.6593307 C123.401522,48.7664626 122.315681,46.0077785 122.553532,43.1993021 C122.775164,40.5823417 124.754387,38.4546123 127.348505,38.0445489 Z" id="Rectangle-Copy-150" fill="#FB7F21"></path>
            <path d="M223.5,20.25 C224.12132,20.25 224.68382,20.5018398 225.09099,20.9090097 C225.49816,21.3161797 225.75,21.8786797 225.75,22.5 C225.75,23.1213203 225.49816,23.6838203 225.09099,24.0909903 C224.68382,24.4981602 224.12132,24.75 223.5,24.75 C222.87868,24.75 222.31618,24.4981602 221.90901,24.0909903 C221.50184,23.6838203 221.25,23.1213203 221.25,22.5 C221.25,21.8786797 221.50184,21.3161797 221.90901,20.9090097 C222.31618,20.5018398 222.87868,20.25 223.5,20.25 Z" id="Oval-Copy-4" stroke="#FB7F21" stroke-width="1.5"></path>
            <circle id="Oval-Copy-16" fill="#FB7F21" cx="223.5" cy="30.75" r="2.25"></circle>
            <path d="M100.904976,1.62146298 L102.479233,2.98613241 C103.136565,3.55595148 103.514184,4.38304536 103.514184,5.25297631 L103.513434,47.933213 L103.618576,48 C104.48749,48.5499454 105,49.2216756 105,50.25 L105,102 C105,103.656854 103.656854,105 102,105 L8.11780112,105 C7.71021019,105 7.30689393,104.916944 6.93246734,104.7559 L3,103.064515 L100.904934,48.330713 L100.904976,1.62146298 Z" id="Path" fill="#FB7F21"></path>
            <circle id="Oval-Copy-5" stroke="#FB7F21" stroke-width="1.5" cx="223.5" cy="76.5" r="2.25"></circle>
            <circle id="Oval-Copy-12" stroke="#FB7F21" stroke-width="1.5" cx="171" cy="76.5" r="2.25"></circle>
            <path d="M99,0 C100.656854,0 102,1.34314575 102,3 L102,100.5 C102,102.156854 100.656854,103.5 99,103.5 L4.5,103.5 C2.84314575,103.5 1.5,102.156854 1.5,100.5 L1.5,55.875 C0.625802705,55.3604776 0,53.3831348 0,51.75 C0,50.1168652 0.625802705,48.1395224 1.5,47.625 L1.5,3 C1.5,1.34314575 2.84314575,0 4.5,0 L99,0 Z" id="Path" fill="#FFC753"></path>
            <path d="M29.75,6 L73.75,6 C74.3022847,6 74.75,6.44771525 74.75,7 L74.75,41 C74.75,41.5522847 74.3022847,42 73.75,42 L29.75,42 C29.1977153,42 28.75,41.5522847 28.75,41 L28.75,7 C28.75,6.44771525 29.1977153,6 29.75,6 Z" id="Rectangle-Copy-23" stroke="#FB7F21" fill="#FB7F21"></path>
            <path d="M29.75,61.5 L73.75,61.5 C74.3022847,61.5 74.75,61.9477153 74.75,62.5 L74.75,96.5 C74.75,97.0522847 74.3022847,97.5 73.75,97.5 L29.75,97.5 C29.1977153,97.5 28.75,97.0522847 28.75,96.5 L28.75,62.5 C28.75,61.9477153 29.1977153,61.5 29.75,61.5 Z" id="Rectangle-Copy-24" stroke="#FB7F21" fill="#FB7F21"></path>
            <line x1="1.5" y1="48" x2="102" y2="48" id="Rectangle-Copy-18" stroke="#FB7F21"></line>
            <line x1="6.43085106" y1="50.625" x2="6.375" y2="52.875" id="Rectangle-Copy-153" stroke="#FB7F21" stroke-linecap="round" stroke-linejoin="round"></line>
            <line x1="8.68085106" y1="50.625" x2="8.625" y2="52.875" id="Rectangle-Copy-154" stroke="#FB7F21" stroke-linecap="round" stroke-linejoin="round"></line>
            <line x1="10.9308511" y1="50.625" x2="10.875" y2="52.875" id="Rectangle-Copy-155" stroke="#FB7F21" stroke-linecap="round" stroke-linejoin="round"></line>
            <line x1="102" y1="55.5" x2="1.5" y2="55.5" id="Rectangle-Copy-27" stroke="#FB7F21"></line>
            <g id="Group-6" transform="translate(79.500000, 66.000000)" fill="#FB7F21">
                <path d="M9,12 C10.6568542,12 12,13.3431458 12,15 C12,16.6568542 10.6568542,18 9,18 C7.34314575,18 6,16.6568542 6,15 C6,13.3431458 7.34314575,12 9,12 Z M15,6 C16.6568542,6 18,7.34314575 18,9 C18,10.6568542 16.6568542,12 15,12 C13.3431458,12 12,10.6568542 12,9 C12,7.34314575 13.3431458,6 15,6 Z M3,6 C4.65685425,6 6,7.34314575 6,9 C6,10.6568542 4.65685425,12 3,12 C1.34314575,12 0,10.6568542 0,9 C0,7.34314575 1.34314575,6 3,6 Z M9,0 C10.6568542,0 12,1.34314575 12,3 C12,4.65685425 10.6568542,6 9,6 C7.34314575,6 6,4.65685425 6,3 C6,1.34314575 7.34314575,0 9,0 Z" id="Combined-Shape-Copy-4"></path>
            </g>
            <circle id="Oval-Copy-13" fill="#FB7F21" cx="81.75" cy="89.25" r="2.25"></circle>
            <circle id="Oval-Copy-14" fill="#FB7F21" cx="81.75" cy="95.25" r="2.25"></circle>
            <circle id="Oval-Copy-15" fill="#FB7F21" cx="21.75" cy="95.25" r="2.25"></circle>
            <circle id="Oval-Copy-10" fill="#FB7F21" cx="51.75" cy="51.75" r="2.25"></circle>
            <circle id="Oval-Copy-11" fill="#FB7F21" cx="59.25" cy="51.75" r="1"></circle>
            <rect id="Rectangle-Copy-152" fill="#FB7F21" x="12" y="33" width="6" height="3" rx="1.5"></rect>
            <rect id="Rectangle-Copy-158" fill="#FB7F21" x="85.5" y="33" width="6" height="3" rx="1.5"></rect>
            <path d="M16,68.25 C16.2761424,68.25 16.5,68.4738576 16.5,68.75 L16.5,73.5 L21.25,73.5 C21.5261424,73.5 21.75,73.7238576 21.75,74 L21.75,77.5 C21.75,77.7761424 21.5261424,78 21.25,78 L16.5,78 L16.5,82.75 C16.5,83.0261424 16.2761424,83.25 16,83.25 L12.5,83.25 C12.2238576,83.25 12,83.0261424 12,82.75 L12,78 L7.25,78 C6.97385763,78 6.75,77.7761424 6.75,77.5 L6.75,74 C6.75,73.7238576 6.97385763,73.5 7.25,73.5 L12,73.5 L12,68.75 C12,68.4738576 12.2238576,68.25 12.5,68.25 L16,68.25 Z" id="Combined-Shape-Copy-3" fill="#FB7F21"></path>
            <ellipse id="Oval-Copy" fill="#FB7F21" cx="101.25" cy="51.75" rx="1.5" ry="3.75"></ellipse>
            <path d="M87.75,48 C87,48 86.25,49.6789322 86.25,51.75 C86.25,53.936607 87,55.5 87.75,55.5" id="Path" stroke="#FB7F21"></path>
            <path d="M18,48 C17.25,48 16.5,49.6789322 16.5,51.75 C16.5,53.936607 17.25,55.5 18,55.5" id="Path-Copy" stroke="#FB7F21"></path>
        </g>
    </g>
</svg>