<svg xmlns="http://www.w3.org/2000/svg" width="18" height="18" viewBox="0 0 18 18">
  <g fill="none" fill-rule="evenodd">
    <circle cx="9" cy="9" r="8" fill="#000"/>
    <path fill="#FFF" fill-rule="nonzero" d="M9.36789721,11.0717357 L9.36789721,10.9772756 C9.38778021,9.83381079 9.7159049,9.32173742 10.5610745,8.79972087 C11.4509885,8.26278956 11.997863,7.50710846 11.997863,6.38850158 C11.997863,4.77273607 10.7748528,3.67898712 8.95028063,3.67898712 C7.27485609,3.67898712 5.93252783,4.65838959 5.86789721,6.44816061 L7.3792594,6.44816061 C7.43891843,5.39418434 8.18962795,4.93182683 8.95028063,4.93182683 C9.79545028,4.93182683 10.4815292,5.49361607 10.4815292,6.37358682 C10.4815292,7.11435316 10.0191717,7.63636971 9.4275529,8.00426708 C8.50283787,8.5710279 7.9559634,9.13281714 7.94602022,10.9772756 L7.94602022,11.0717357 L9.36789721,11.0717357 Z M8.69672974,14.0944601 C9.23863263,14.0944601 9.69104697,13.651989 9.69104697,13.1001429 C9.69104697,12.55824 9.23863263,12.1107973 8.69672974,12.1107973 C8.14985526,12.1107973 7.7024125,12.55824 7.7024125,13.1001429 C7.7024125,13.651989 8.14985526,14.0944601 8.69672974,14.0944601 Z"/>
  </g>
</svg>
