<?xml version="1.0" encoding="UTF-8"?>
<svg width="495px" height="201px" viewBox="0 0 495 201" version="1.1" xmlns="http://www.w3.org/2000/svg" xmlns:xlink="http://www.w3.org/1999/xlink">
    <title>website/src/icons/logo</title>
    <g id="website/src/icons/logo" stroke="none" stroke-width="1" fill="none" fill-rule="evenodd">
        <path d="M119.41955,86.5960462 C130.554148,85.8162548 136.511574,87.1645497 141.96845,89.0655199 L142.579908,89.2816636 C142.892686,89.3937542 143.204424,89.5077008 143.507527,89.620075 C147.786021,91.1954026 150.908894,93.7550728 153.033538,96.8102492 C155.386846,100.194238 156.517897,104.219346 156.515553,108.31668 C156.514853,109.539872 156.386607,110.881079 156.140986,112.285195 C156.392607,113.607555 156.51633,114.958675 156.515553,116.31668 C156.514305,118.498967 156.075045,121.077836 155.319497,123.71 L161.296783,123.125694 C161.632923,117.365404 162.037836,112.407935 162.509767,108.253125 L162.581059,107.635924 C162.69781,106.642033 162.829502,105.602607 162.976207,104.518104 C164.042227,104.364569 165.095929,104.233336 166.1373,104.124325 C169.078487,103.816442 172.152613,103.661617 175.359772,103.661617 C179.18805,103.661617 182.69105,103.815816 185.868946,104.120893 C187.139406,104.242857 188.456289,104.398379 189.819452,104.588147 C189.707597,105.840298 189.591222,107.13231 189.470327,108.464185 C189.373999,109.525402 189.279405,110.561208 189.186545,111.571604 L189.106771,112.431184 L189.830055,112.501158 L189.470327,116.464185 C189.350876,117.780138 189.234092,119.057018 189.119973,120.294825 L204.174979,119.233505 C203.991643,124.378513 203.836193,128.496663 203.70876,131.590257 C203.836487,136.500575 203.688183,140.226551 203.572107,142.745024 C203.458498,145.209964 203.358907,146.843929 203.279022,147.647409 C203.218339,148.257749 203.074446,149.340158 202.844858,150.894354 L186.815771,152.613184 L186.815261,152.626763 C186.840327,153.090062 186.870496,153.582241 186.905965,154.110114 L186.933564,154.512817 C187.057659,156.290156 187.581245,157.714863 188.45611,158.70054 C189.240495,159.584277 190.293,160.062627 191.383011,160.109646 C193.844093,160.21581 197.736839,159.004579 199.660615,158.262371 C200.558875,157.915816 201.843853,157.3567 203.136931,156.682803 L212.01774,176.909733 L209.405861,178.812162 L211.818393,184.576358 C210.981856,185.49702 210.171068,186.25481 209.416498,186.804424 C203.891714,190.828561 186.820474,194.29802 178.796735,191.28454 C178.631089,191.222329 178.468646,191.16132 178.296743,191.096531 L177.558601,190.816297 C177.208529,190.682101 176.858135,190.545508 176.508133,190.40506 L176.000293,190.198279 C171.775307,188.451488 167.716266,186.044251 164.704271,181.049374 C163.181518,178.524148 161.914884,175.28177 161.115663,170.989327 L161.087771,170.842184 L161.041758,170.993571 C159.926408,174.434774 157.952681,177.698329 155.194886,180.656344 L154.830733,181.040429 C150.621888,185.406215 144.641908,189.090592 137.295594,191.574128 C128.29288,194.617636 111.582493,197.60471 87.1435402,200.459176 C85.9323323,200.600645 84.7395217,200.737422 83.5681169,200.868498 C83.3154878,199.751001 83.0519249,198.583464 82.7774282,197.365884 C81.7310453,192.724465 80.8531647,188.808049 80.1437801,185.616638 C79.4271219,182.392503 78.7939822,179.373391 78.244177,176.559342 L77.4309607,172.397084 L78.9757711,172.187184 L78.8133608,171.400391 C78.6808364,170.754274 78.5523515,170.11801 78.4278792,169.49159 L78.244177,168.559342 C77.9823041,167.219006 77.7204397,165.828481 77.461653,164.387522 C78.8177068,164.207653 80.2083629,164.021291 81.6336219,163.828449 C89.5006749,162.764007 96.2988987,161.78936 102.027845,160.902611 L102.408771,160.843184 L101.955292,160.765756 C97.9008211,160.069606 94.3563676,159.312924 92.2284486,158.569975 L91.9699021,158.477184 C79.1166422,153.730407 72.4535658,148.23159 70.2554696,138.236976 C69.6784548,135.613324 69.6657676,132.76636 70.1912245,129.83272 C69.2902162,124.655143 70.3879776,118.834058 73.1884107,113.276705 C75.9989553,107.699287 80.5080162,102.397344 86.1457572,98.40919 C94.6644002,92.2577921 106.875978,87.4745125 119.41955,86.5960462 Z M151.613771,132.528184 L151.443491,132.822834 C151.086328,133.427033 150.71706,134.005728 150.337996,134.552409 C150.123023,134.862441 149.897302,135.173132 149.661737,135.483556 L149.377771,135.849184 L149.409139,135.867389 C150.056334,136.25197 150.696927,136.662545 151.326124,137.099047 L151.951345,137.544189 L151.613771,132.528184 Z M120.674771,119.885184 L120.572235,119.892486 C120.347646,119.90707 120.115218,119.923106 119.87499,119.93993 C115.231523,120.265126 108.094387,122.758745 104.171459,125.349749 L104.017771,125.453184 L104.042224,125.463024 C106.86164,126.537035 111.275998,127.410876 117.512012,128.012674 L118.035901,128.062192 C118.730456,128.126485 119.406923,128.191266 120.066235,128.256705 L120.486771,128.299184 L120.671288,127.881542 C120.746968,127.708044 120.823338,127.531553 120.900406,127.352075 L121.133709,126.804678 C121.53826,125.848597 121.898941,124.961192 122.214587,124.142112 L122.313771,123.878184 L119.291472,123.158467 L120.674771,119.885184 Z M344.904705,88.4591949 C345.773852,102.984064 346.575725,117.400982 347.310326,131.709948 C347.942719,144.028041 348.835898,157.202281 349.989369,171.229713 L350.530692,177.753224 L349.870771,177.778184 L349.989369,179.229713 L350.529747,185.741825 L322.438899,186.880484 L322.148771,183.850184 L321.911303,183.983597 C317.115152,186.621768 310.908649,188.362146 304.62498,188.449662 L304.128765,188.453123 C296.049843,188.453123 287.504016,185.161326 281.091173,179.409953 C275.21761,174.142234 271.139116,166.856362 270.688976,158.254104 C270.580297,156.177237 270.645464,154.189009 270.865574,152.290422 C270.784261,151.620958 270.724961,150.941791 270.688976,150.254104 C270.155552,140.060298 273.751496,131.991789 279.554866,126.136413 C286.039382,119.593786 295.39546,115.834335 305.003939,115.193055 C308.944777,114.93004 312.946946,115.505551 316.894859,116.609395 C316.711971,112.661275 316.482915,108.018145 316.207535,102.680334 L316.100086,100.605421 C316.450503,98.7489126 316.315543,96.7738874 316.207535,94.680334 L315.908372,88.903327 L344.904705,88.4591949 Z M314.58693,149.457576 C312.05646,148.218318 310.069547,147.200523 305.575895,147.84345 C302.878967,148.229312 299.983954,149.735918 298.332676,152.064946 C299.098132,153.289207 300.145169,154.321141 301.330901,155.123718 C303.092721,156.316228 305.178881,157.019131 307.210874,157.019131 C310.133706,157.019131 312.766447,156.067322 314.828096,154.572812 L315.12967,154.347347 C316.319618,153.429967 317.310814,152.328729 318.010718,151.127809 L318.017771,151.112184 L315.517693,149.910456 C315.199417,149.757493 314.890187,149.606091 314.58693,149.457576 Z M410.665758,114.001956 C419.701031,114.550968 427.057514,117.922123 432.047903,123.204333 C437.075589,128.526022 439.793389,135.839241 439.239893,144.525472 C439.20015,145.149169 439.141273,145.761459 439.063971,146.362678 C439.312064,148.327068 439.376293,150.384891 439.239893,152.525472 C438.698257,161.025588 434.687239,167.446169 428.409639,171.83189 C422.070896,176.260327 413.263943,178.56745 403.333614,178.56745 C394.730218,178.56745 386.797754,176.281062 381.223935,171.5982 C376.099657,167.293021 372.795185,160.982032 372.795185,152.271104 C372.795185,150.951228 372.886058,149.654912 373.062471,148.386042 C372.887149,147.07986 372.795185,145.708502 372.795185,144.271104 C372.795185,135.175579 377.075523,127.172612 384.152398,121.642823 C390.890235,116.377954 400.209422,113.366595 410.665758,114.001956 Z M406.872574,143.53892 C404.234305,143.53892 401.885581,144.162189 399.993926,145.24561 C398.849583,145.901017 397.874528,146.722935 397.131522,147.667173 C397.670498,148.213043 398.329511,148.674094 399.077143,149.03946 C400.662223,149.814086 402.625255,150.159066 404.825659,150.013387 C407.491172,149.836916 409.761836,149.199056 411.553536,148.13994 C412.539387,147.557181 413.369163,146.84689 414.017491,146.026866 C413.552554,145.522598 412.992327,145.103226 412.367084,144.762426 C410.826332,143.92261 408.920244,143.53892 406.872574,143.53892 Z M220.13567,29.6484156 L234.395696,51.7764798 C234.627054,51.1089104 234.851426,50.4498325 235.072817,49.7923668 L235.468193,48.6115414 C235.661107,48.0325986 235.85361,47.4515309 236.048317,46.86382 C236.206904,46.3851322 236.366943,45.9020661 236.530867,45.4090768 L236.847172,44.4604264 C237.927653,41.23013 239.162468,37.6558509 240.918359,33.1013785 C241.322609,32.0528269 241.712453,31.0613233 242.090371,30.1187769 C243.118465,30.2637782 244.174867,30.4198115 245.259576,30.586901 C248.636332,31.1070596 251.719243,31.6468448 254.508439,32.2055326 C257.220938,32.7488574 260.190248,33.3108538 263.416348,33.8916493 C264.950635,34.1678675 266.429006,34.4278144 267.851186,34.6717858 C267.416894,36.1106964 266.976487,37.5556531 266.530819,39.0044363 C266.268484,39.8572374 266.005387,40.7079172 265.741638,41.5560036 L265.517771,42.2701842 L267.857632,42.6912148 L266.530819,47.0044363 C261.298695,64.013096 255.759302,80.1794005 250.790363,91.7912281 C246.144817,102.647327 239.730274,111.118036 232.468075,115.754842 L232.161771,115.946184 L232.149948,116.04273 C232.023875,117.036288 231.85198,118.130853 231.658822,119.324789 L231.627771,119.512184 L231.919062,119.550801 L232.045057,122.924416 C232.100459,124.407824 231.863277,126.068931 231.560585,127.930031 C231.083477,130.863526 230.501883,134.411155 230.243505,138.551578 C230.536827,141.222865 231.539623,143.328221 232.983767,144.693084 C234.262968,145.902058 235.897237,146.524726 237.43102,146.169496 C239.525151,145.684488 241.220498,144.790918 242.410519,143.236341 C243.664792,141.597828 244.362861,139.348972 244.677837,136.469625 C244.373041,132.279858 243.828283,127.377553 243.144357,121.954962 L242.669539,118.190311 L243.639771,118.015184 L243.632533,117.944253 C243.517755,116.973091 243.397284,115.981699 243.271668,114.971448 L243.144357,113.954962 C242.983043,112.675959 242.821357,111.426762 242.659303,110.210449 C243.80074,109.992703 245.048948,109.761788 246.403937,109.517759 C248.936177,109.061712 251.102935,108.69285 252.904153,108.410821 L253.849129,108.265768 C254.630528,108.148416 255.334083,108.049693 255.959763,107.969407 C258.133931,107.69042 261.001343,107.3556 264.562037,106.965271 C266.040299,106.803221 267.399832,106.657719 268.640621,106.529726 C268.754506,107.891958 268.868836,109.249883 268.98361,110.6035 C269.738515,119.506617 270.543772,128.590172 271.399373,137.854165 C272.255056,147.119038 273.01142,155.089092 273.668487,161.764325 L274.051724,165.651117 L273.275771,165.745184 L273.295806,165.948122 C273.391447,166.935053 273.485255,167.897328 273.577185,168.834938 L273.668487,169.764325 C273.790935,171.008287 273.91877,172.297047 274.051724,173.630271 C272.792028,173.795811 271.712953,173.93476 270.814504,174.047134 L270.174534,174.126433 C268.305881,174.355554 265.465766,174.68014 261.654162,175.099985 C258.016871,175.500629 255.176075,175.796348 253.131808,175.987444 C252.08216,176.085565 250.821042,176.195501 249.348449,176.317212 L249.039771,174.211184 L248.925337,174.287355 C245.661775,176.40658 241.686723,177.489331 235.520409,177.54631 L235.001445,177.548684 C226.427636,177.548684 218.969841,174.682999 213.499846,169.3843 C208.340775,164.386786 204.890009,157.164531 204.155431,147.845718 C203.902397,144.635739 203.903759,141.395675 204.051882,138.283498 C203.638844,130.6253 204.589341,122.939659 205.356467,117.463826 L205.415771,117.043184 L205.169462,116.937972 C201.265101,115.222124 197.485269,112.586818 194.509367,108.696089 L194.182054,108.258602 L196.904974,103.407233 C195.904763,102.424803 194.961199,101.337375 194.092057,100.135749 L207.609502,78.644644 C211.590386,82.0276024 214.487561,84.7590446 216.804981,84.7942139 C217.121344,84.799015 217.409602,84.6447383 217.695648,84.3831176 L196.478616,52.3554319 L199.452599,50.0855921 C199.632036,49.9486397 199.814653,49.8110724 200.000452,49.672895 L196.565718,44.4853423 C199.325164,41.9536992 203.313267,39.1717815 208.547889,36.1658928 C211.817369,34.2884518 214.585278,32.7193979 216.851548,31.4586124 C217.845075,30.9058874 218.939781,30.3024852 220.13567,29.6484156 Z M361.698356,87.4557937 C365.359119,87.5602353 368.596591,89.2099698 370.975458,91.7404785 C373.361519,94.2786395 374.846108,97.6963853 375.026242,101.138769 C375.107457,102.690813 374.918023,104.254996 374.434684,105.754077 C374.765133,106.858702 374.966512,107.997333 375.026242,109.138769 C375.180262,112.082115 374.375765,115.070212 372.410739,117.573354 C373.047606,124.196446 373.420659,130.526986 373.728477,136.561957 C374.04693,142.805414 374.372659,150.233388 374.705597,158.84669 L374.76238,160.32343 C374.517651,162.393064 374.616553,164.543739 374.703093,166.781932 L374.907178,172.087997 L349.253041,172.659602 L347.929347,146.709295 L346.789751,124.368117 C347.030781,122.259507 346.97483,120.157582 346.874934,118.058387 L346.871771,117.991184 L346.750996,117.87627 C344.765216,115.935889 343.527929,113.538413 343.300682,110.837867 L343.277556,110.498732 C343.19701,108.959486 343.467419,107.427807 344.05585,105.956738 C343.609675,104.876659 343.341539,103.721461 343.277556,102.498732 C343.083891,98.7977836 344.977456,95.0563816 348.409192,92.2007104 C351.473822,89.650521 355.698108,87.8676506 359.922765,87.5539067 L361.698356,87.4557937 Z M49.6206645,17.8829066 C64.9863159,15.5269603 76.6737026,17.9713576 85.1779928,22.5025725 C97.1668836,28.8904356 102.973585,39.4848102 104.022829,47.8897529 C104.40667,50.9651762 104.420565,53.9319231 104.127677,56.7729773 C105.677607,70.5773437 99.4187253,82.4757133 91.3265887,90.0878428 C83.8161228,97.1528049 69.4510086,102.809322 57.6213149,107.342981 L58.1737711,107.130184 L62.0466134,124.640028 L60.3847711,125.129184 L62.0411691,132.614028 C55.2619752,134.713567 50.1261012,136.052836 46.6397075,136.661149 L46.3176907,136.716038 C43.7207161,137.147926 40.5432451,137.630778 36.782905,138.164518 L32.3287467,138.794089 L15.8260641,65.8667535 L10.0603708,67.6976791 C7.48147417,62.2197934 5.85058347,58.2603127 5.12072548,55.8355782 C4.35555622,53.2935325 3.24789815,49.0181805 1.80264054,43.0081403 L1,39.6703949 L2.76277115,38.9491842 L2.69855292,38.6878944 C2.46330729,37.7350204 2.21668987,36.7243956 1.95875739,35.6560639 L1.80264054,35.0081403 C1.52346361,33.8471953 1.26257692,32.7502117 1.02198698,31.7164942 C2.12190725,31.230024 3.17667221,30.7800088 4.17734278,30.3706761 C15.3076799,25.8177179 34.7393177,20.1645966 49.6206645,17.8829066 Z M170.780949,20.6760028 C180.317741,20.6760028 189.2784,23.9069535 198.240485,31.0450991 L195.219856,36.7867536 C196.227286,37.4908414 197.233907,38.2437552 198.240402,39.0452561 L197.191771,41.0371842 L197.318387,42.0236715 C198.180382,48.6226628 199.290132,55.5164315 200.647064,62.7050729 L200.964589,64.3692246 C202.297998,71.2840616 203.649878,77.3944197 205.02214,82.6998607 L205.916668,86.1582848 L204.067771,86.8661842 L204.270522,87.7051955 C204.43712,88.3886982 204.603996,89.0601908 204.771166,89.7196647 L205.02214,90.6998607 C205.301395,91.7795159 205.597587,92.8880072 205.910446,94.0254311 C204.834026,94.5280075 203.724251,94.9984856 202.580991,95.4366179 C198.941749,96.8312862 195.33587,97.7553791 191.765527,98.2176888 C188.778856,98.6044213 186.037069,98.8901593 183.540277,99.0759911 L179.126074,99.3864863 L177.331872,90.4951142 C175.942778,91.868575 174.394943,93.1332121 172.686448,94.2233072 C168.859835,96.6648549 164.236411,98.2508063 158.76645,98.2508063 C149.638808,98.2508063 142.519328,95.2075739 137.599074,90.0265878 C132.642602,84.8074645 129.846127,77.2921264 129.846127,68.0099145 C129.846127,66.6721607 129.909709,65.360599 130.033123,64.0763877 C129.909326,62.7626124 129.846127,61.4061516 129.846127,60.0099145 C129.846127,48.5598417 134.468595,39.0213082 141.607563,32.1917732 C149.263289,24.8678788 159.853938,20.6760028 170.780949,20.6760028 Z M168.449771,53.1421842 L168.086799,53.1682115 C165.099404,53.418815 162.4046,54.5614021 160.199473,56.2015066 C157.787806,57.9952287 155.937495,60.3853521 154.974776,62.9052708 C155.22358,63.4620733 155.560735,63.9320603 156.042606,64.2732249 C156.882058,64.8675575 158.030226,65.0652147 159.440149,65.0652147 C161.881068,65.0652147 163.888704,63.4448606 165.400613,61.3164876 C166.981748,59.0906638 168.050628,56.2195464 168.447605,53.1646823 L168.449771,53.1421842 Z M284.965631,29.237359 C290.917803,25.6831605 299.539948,23.1416672 308.872482,24.6733622 C315.76182,25.8040698 322.240902,28.9662394 327.088417,34.0412111 C331.456367,38.6141153 334.531724,44.7441998 335.337615,52.4234154 C336.273973,61.3458233 336.692559,70.3351658 336.474782,77.316058 C336.567409,80.8393564 336.547667,84.1239663 336.407845,87.0033753 C336.356428,88.0622272 336.28354,89.1740422 336.190306,90.3306647 C335.146294,90.4797957 334.059792,90.6281361 332.930794,90.7756529 C329.500885,91.2238109 326.448069,91.5638487 323.772444,91.7966976 C321.099323,92.0293285 317.786465,92.2304501 313.833767,92.3985596 C312.422434,92.458584 311.092021,92.5074889 309.842515,92.5451137 C309.78978,91.2654089 309.731661,89.9467158 309.668167,88.5890342 C309.241295,79.4613133 308.737029,72.1108127 308.152171,66.5377979 C307.83871,63.5508792 306.748129,61.1299633 304.959097,59.6324612 C303.311209,58.2531035 301.115117,57.7713796 298.724037,58.2171879 C297.011566,58.5364717 295.567683,59.4585425 294.442673,60.7820005 C293.183965,62.2627403 292.315285,64.2118698 291.843689,66.4406723 C292.38288,71.3210069 293.063754,76.5395212 294.127441,82.546076 L294.839572,86.5674273 L293.490771,86.7771842 L293.616718,87.5508352 C293.723467,88.2013497 293.834504,88.8619001 293.950247,89.5325407 L294.127441,90.546076 C294.372075,91.9275083 294.621405,93.2628627 294.871556,94.553801 C293.626506,94.7534754 292.270756,94.967522 290.804304,95.1959229 C286.483017,95.868966 283.115382,96.3684024 280.701461,96.69469 C278.340541,97.0138136 276.069293,97.3483664 273.88773,97.6984398 C272.624517,97.9011465 271.334371,98.1182042 270.017046,98.3484386 C269.781167,97.0491972 269.547478,95.7499164 269.315978,94.4505963 C267.742818,85.6210394 266.265189,76.7582634 264.883095,67.8622677 C264.230161,63.6595963 263.608397,59.6367584 263.0178,55.7937543 L262.628686,53.2583936 C262.116024,49.9134353 261.627989,46.7105679 261.164579,43.6497915 L260.613984,40.013165 L261.783771,39.7331842 L261.715534,39.2812945 C261.590738,38.4599606 261.467478,37.6481937 261.34583,36.8459708 L261.164579,35.6497915 C260.987439,34.4798025 260.80759,33.2889123 260.625188,32.0771294 C261.846185,31.7415305 263.035052,31.4358861 264.191756,31.1600819 C267.168734,30.4502521 270.425016,29.8206831 273.960997,29.2733609 C277.357685,28.7475997 279.671365,28.4287257 280.901341,28.3104893 C281.668089,28.2367827 282.863112,28.1593924 284.486534,28.0798366 L284.755771,29.3641842 L284.965631,29.237359 Z M124.62938,3.71620226 C124.767315,5.03414361 124.897935,6.27761793 125.021239,7.44662523 C125.729094,14.1575627 126.71318,23.3189144 127.973486,34.9306812 C129.318001,47.3182955 131.728031,63.3488305 135.199221,83.0228687 L133.851771,83.2571842 L133.968299,83.9388606 C134.057033,84.4579091 134.146577,84.9797337 134.236932,85.5043344 L134.510427,87.086465 C134.736127,88.3874171 134.96079,89.6709856 135.183925,90.9371405 C133.874862,91.2158885 132.574201,91.4722331 131.281952,91.7062082 C128.050046,92.2913781 124.719812,92.7639559 121.291172,93.1234067 C117.875635,93.4814836 114.375403,93.7259414 110.790447,93.8563762 C109.652425,93.8977819 108.522083,93.9271074 107.399041,93.9442652 C107.169802,92.8466775 106.944597,91.7476482 106.723425,90.6471773 C104.157082,77.877974 102.166657,65.077965 100.752012,52.2471719 L96.6296949,14.8578784 L97.4927711,14.6871842 L96.6369153,6.92336756 C100.736652,5.97710265 104.703986,5.27329415 108.538605,4.80991453 L109.58112,4.6894978 C112.569304,4.36038326 116.326483,4.08642739 120.852922,3.87074212 C122.176817,3.80765839 123.435678,3.75579396 124.62938,3.71620226 Z M418.189206,1 L418.189206,16.8650476 L432.30507,14.239399 L432.304771,35.0451842 L432.378494,34.9308093 C433.576632,33.0732262 434.954192,31.2807505 436.492108,29.5983642 L436.879917,29.1800872 C442.008418,23.7263522 448.800829,19.5231499 456.403332,18.0492002 C462.421222,16.8824701 466.316854,17.0319298 472.642092,18.0244299 C476.529842,18.6344612 480.814015,20.6271779 483.898911,23.6186011 C486.806569,26.4381563 488.644602,30.0853521 488.572599,34.2166496 C488.552458,35.3723205 488.370931,36.7119304 487.998401,38.1285881 C488.393685,39.4226549 488.597484,40.7888124 488.572599,42.2166496 C488.52427,44.9896907 487.481919,48.8454292 485.220573,52.259327 C487.434351,53.6160093 489.249296,54.8352635 491.056071,56.1592383 L494.011915,58.3252311 L492.112489,61.4590332 C491.623982,62.2650051 491.104278,63.043407 490.554629,63.7946329 C490.721847,63.9152707 490.888994,64.0368067 491.056071,64.1592383 C492.000672,64.8514256 492.918652,65.5543678 493.809085,66.2700237 C493.306739,67.3575814 492.741556,68.4211552 492.112489,69.4590332 C485.754289,79.9492197 474.049386,85.8680804 459.065468,87.3569579 C450.894796,88.1688369 443.861025,86.4647789 438.481592,82.9915057 C432.955674,86.4995302 423.854418,88.9769364 415.515355,87.795128 C409.581708,86.9542141 404.337466,84.3188552 400.343608,79.1599406 C397.063444,74.922913 394.601673,68.8591822 393.549064,60.3546325 C393.18134,57.3836188 393.106308,55.7162823 393.098741,53.0133598 L393.097771,52.4751842 L386.458056,53.2950529 L383.894644,30.3394034 L384.770771,30.1821842 L383.894644,22.3337516 L393.518773,20.6237751 L393.518773,5.21196039 C397.812001,4.30631523 401.655855,3.52618614 405.050295,2.87141196 C408.821125,2.14403346 413.200505,1.51863958 418.189206,1 Z M427.258771,47.7841842 L418.327397,49.1699871 C418.378759,49.6252912 418.435892,50.104971 418.49898,50.6146885 C418.669976,51.996249 419.332498,53.0553955 420.189046,53.8059675 C421.310279,54.7884756 422.7398,55.3119813 423.893863,55.3119813 C424.873611,55.3119813 425.91261,54.9311046 426.931093,54.112919 C426.860375,52.585405 426.899119,51.0062615 427.054555,49.3806017 C427.100019,48.9051061 427.159676,48.4266513 427.233229,47.9459401 L427.258771,47.7841842 Z M365.030444,28.8962271 C373.557689,28.8962271 380.815626,31.4656951 385.916957,36.0863447 C390.904887,40.6042785 393.956231,47.1147486 393.985155,55.4859905 C393.989649,56.8792006 393.897347,58.1900385 393.717368,59.4232225 C393.888644,60.723627 393.980145,62.0783205 393.985155,63.4859905 C394.013007,71.8471446 390.690826,77.305945 385.306746,80.8477977 C379.716729,84.5251232 371.488196,85.9973494 361.865692,85.9973494 C353.85967,85.9973494 346.033941,84.2319681 340.501244,80.5729461 C335.148533,77.0329564 331.764733,71.8158471 331.764733,64.7356067 C331.764733,63.3358568 331.888984,61.9454026 332.132223,60.5749285 C331.892324,59.3633634 331.764733,58.0843166 331.764733,56.7356067 C331.764733,49.1889036 335.377315,41.8669744 341.8465,36.5972797 C347.550582,31.9508259 355.499816,28.8962271 365.030444,28.8962271 Z M364.380989,56.4045413 C361.503904,56.4045413 358.794754,57.34022 356.781286,58.7897048 C358.256347,59.3028879 360.079869,59.5102424 362.021254,59.5102424 C364.627258,59.5102424 366.772482,59.2552162 368.434483,58.5040442 C368.824726,58.3276664 369.179176,58.1192198 369.497146,57.8751577 C369.24918,57.6756729 368.975698,57.4930522 368.676246,57.3307825 C367.557121,56.7243418 366.125744,56.4045413 364.380989,56.4045413 Z" id="Combined-Shape" fill="#FFFFFF" fill-rule="nonzero"></path>
        <g id="logo" transform="translate(5.691771, 13.486184)" fill="#FF8212" fill-rule="nonzero">
            <path d="M114.007227,85.1000886 C125.355182,84.3053552 130.923574,85.8448841 136.433676,87.8875363 C143.637896,90.5401068 146.827347,96.5975326 146.823782,102.828208 C146.821082,107.54874 144.427663,114.361569 141.359124,118.786978 C139.150313,118.595727 136.123661,118.189692 132.279168,117.568873 C128.434673,116.948055 124.050194,116.050841 119.125732,114.877232 C120.900179,110.68365 121.871048,107.69094 122.038337,105.899103 C122.28927,103.211347 120.014208,102.035585 113.90377,102.463519 C107.793333,102.891452 97.9712049,106.69454 94.2595141,110.069694 C90.5478235,113.444848 90.3587325,117.018334 91.4171786,119.61439 C92.4756247,122.210446 98.2905812,125.292223 111.975441,126.55898 C125.6603,127.825738 132.000812,129.233038 138.795078,132.317458 C145.589343,135.401877 152.735612,141.644254 152.407402,151.390511 C152.079192,161.136767 143.60567,169.808139 130.322785,174.298625 C121.467527,177.292282 105.022507,180.192741 80.9877242,183 C79.942389,178.363228 79.0653842,174.450735 78.35671,171.26252 C77.6480358,168.074303 77.0218588,165.088845 76.4781787,162.306145 C97.2923327,159.489912 110.7134,157.277343 116.741381,155.668437 C120.825391,154.578389 125.315972,152.84278 125.161367,150.628455 C125.102316,149.782705 124.952273,147.232969 120.962292,146.622339 C116.972312,146.011709 94.1803497,143.645273 87.6638733,141.238704 C76.581973,137.1461 70.3981364,132.657211 68.4703352,123.891613 C66.542534,115.126015 72.6654643,103.331629 82.7640828,96.1887532 C90.7557406,90.4077059 102.228832,85.9249671 114.007227,85.1000886 Z M169.668001,102.175432 C173.35698,102.175432 176.732624,102.322423 179.794933,102.616404 C179.207864,109.083981 178.6853,114.606203 178.227238,119.183068 L178.227238,119.183068 L194.32488,118.050395 C194.14548,122.923574 193.998712,126.598334 193.884578,129.074675 C193.770443,131.551016 193.674095,133.151069 193.595531,133.874834 L193.595531,133.874834 L177.262767,135.517947 C177.041387,141.67418 176.83321,143.314208 177.251507,149.305237 C177.669806,155.296265 181.478692,158.445466 185.518852,158.619745 C188.553846,158.750666 193.444277,157.296832 195.645784,156.41489 L195.645784,156.41489 L201.369701,170.084997 C196.526387,173.612766 181.556139,176.699565 174.511317,174.053737 C174.349366,173.992914 174.18713,173.931985 174.024692,173.870775 L173.292636,173.592852 C172.966923,173.467968 172.640904,173.34092 172.315253,173.210314 L171.827134,173.011563 C165.64992,170.45585 159.726461,166.364634 158.666775,151.187362 C158.348869,146.63418 158.335621,143.611294 158.531902,137.095598 L158.531902,137.095598 L151.184701,137.683649 L150.143425,122.197402 L159.41211,121.283537 C159.791617,113.836455 160.274906,107.614077 160.861973,102.616404 C163.670349,102.322423 166.605693,102.175432 169.668001,102.175432 Z M335.447207,87.0311509 C336.228681,100.253479 336.954218,113.386045 337.623816,126.428848 C338.258173,138.785188 339.154,152.000344 340.311298,166.074314 L340.506602,168.427928 L320.368054,169.244242 L319.738898,162.673409 C315.937807,167.465802 307.145998,170.966939 298.436993,170.966939 C284.851285,170.966939 269.818631,160.360936 268.991739,144.558893 C267.991079,125.436129 283.453113,114.774219 299.578539,113.697992 C304.961835,113.338706 310.458193,114.774219 315.726821,116.908945 C315.650967,112.54301 315.245498,103.23579 314.510412,88.9872864 L314.425787,87.3531392 L335.447207,87.0311509 Z M404.731381,112.508407 C420.40604,113.46085 430.509753,123.82071 429.556218,138.784919 C428.602683,153.749129 414.911418,161.081266 397.641843,161.081266 C383.444769,161.081266 371.103413,154.418855 371.103413,138.784919 C371.103413,123.150983 385.921606,111.365465 404.731381,112.508407 Z M259.306141,105.455267 C260.061874,114.368157 260.868013,123.461684 261.724554,132.735847 C262.581095,142.010009 263.338229,149.988055 263.995955,156.669982 C262.138021,156.897789 259.314184,157.220411 255.524443,157.637848 C251.734703,158.055284 248.816352,158.358098 246.769392,158.546287 L246.769392,158.546287 L246.199529,152.590765 C241.933292,157.622475 238.313659,160.0625 229.309674,160.0625 C214.761247,160.0625 203.772194,150.802103 202.45129,134.045199 C201.614326,123.427536 203.744375,112.46271 204.304481,107.580484 C208.729549,107.988988 211.934191,108.305173 213.918405,108.52904 C215.902621,108.752908 218.777601,109.11399 222.543347,109.612287 C221.983241,114.494513 220.046628,122.109311 220.480328,132.252112 C220.864987,141.248024 227.28407,145.821028 232.641774,144.580163 C240.31444,142.803145 243.883467,136.739028 243.054004,123.834537 C242.765238,119.342035 242.177992,113.968988 241.421146,107.968242 C243.915482,107.519022 246.050183,107.155411 247.825247,106.877412 L248.757798,106.734266 C249.505201,106.622053 250.1783,106.527529 250.777094,106.450692 C252.93275,106.174081 255.775765,105.842273 259.306141,105.455267 Z M316.661005,126.429037 L311.558608,132.819026 C307.906017,131.063586 305.481816,129.515646 299.317595,130.397589 C293.153376,131.279531 286.548856,136.571185 287.429459,143.626724 C288.310061,150.682264 295.143656,155.532947 301.519103,155.532947 C310.765432,155.532947 317.774907,148.214605 317.42742,141.346324 C317.195763,136.767471 316.94029,131.795042 316.661005,126.429037 Z M362.81809,110.697831 C363.301771,117.906143 363.709707,124.76671 364.041899,131.279531 C364.359648,137.509187 364.684608,144.920743 365.01678,153.514199 L365.06212,154.69336 L347.358069,155.087828 C346.98284,147.731666 346.607611,140.375503 346.232382,133.019341 C345.857154,125.663179 345.482673,118.321684 345.108941,110.994856 L362.81809,110.697831 Z M401.180803,126.052736 C392.178767,126.052736 385.877342,131.908882 385.877342,138.427027 C385.877342,144.435941 391.428831,149.046078 399.398132,148.518465 C407.367433,147.990854 412.433348,143.926711 413.671127,138.376104 C413.783653,137.765027 413.783653,137.255797 413.783653,136.644722 C413.783653,129.719193 408.157381,126.052736 401.180803,126.052736 Z M94.3618529,42.8989624 C95.9865893,55.9167102 90.2519671,66.766746 82.8941224,73.6881401 C75.5362776,80.6095342 61.2554815,85.997257 49.793908,90.3916106 C48.5687477,88.4748901 47.4807382,86.5770646 46.5298796,84.698134 C45.6203626,82.900896 44.367634,79.9462897 42.7716936,75.8343151 L42.551938,75.2664176 L51.643104,116.373015 C46.6158472,117.855534 42.7247176,118.825877 39.9697149,119.284046 C37.3983792,119.71167 34.2522476,120.189555 30.5313202,120.717701 L29.7251807,120.831645 L13.0744501,47.2500678 L6.52152163,49.330984 C4.89134478,45.7175959 3.80390359,43.0060912 3.25919805,41.1964703 C2.50704897,38.6976803 1.42064962,34.4944308 0,28.5867218 C10.9078193,24.1247864 29.9514162,18.5865704 44.5351111,16.350518 C77.8547147,11.2417728 92.7367679,29.8812576 94.3618529,42.8989624 Z M356.044484,85.9736173 C361.227484,86.2101965 365.085128,90.9922139 365.339936,95.8616109 C365.515115,99.2093212 363.891531,102.651444 359.779349,104.494873 C358.606714,105.065043 357.058403,105.349759 355.61939,105.425289 C349.383674,105.752587 341.877594,102.484484 341.580319,96.8035205 C341.303906,91.5212215 347.892428,86.5659043 354.491799,86.0594131 L354.845308,86.036559 L356.044484,85.9736173 Z M238.958824,29.0540878 C242.271066,29.5643086 245.295144,30.0934265 248.031056,30.6414415 C250.76697,31.1894564 253.7619,31.7563684 257.015849,32.3421776 C251.830433,49.1989979 246.345789,65.2230754 241.421146,76.7313896 C235.232613,91.1932684 225.826443,101.392063 215.156383,102.214085 C209.756908,102.630061 199.56168,101.392063 192.995489,93.9938608 L192.995489,93.9938608 L202.844775,79.1974568 C206.119468,81.904188 208.855381,83.2742254 211.052513,83.3075692 C213.332392,83.3421685 215.857094,81.2188475 219.597034,75.1160998 L219.597034,75.1160998 L196.187671,39.7790987 C198.507155,38.0087929 201.393932,36.1319213 204.848,34.148484 C208.302069,32.1650466 211.193092,30.5277029 213.521071,29.236453 L213.521071,29.236453 L229.656937,55.1533837 C231.119595,51.5323332 232.17548,48.5417403 233.174077,45.5761895 L233.571288,44.3898697 C235.022602,40.0344037 236.450914,35.559164 238.958824,29.0540878 Z M165.089178,19.1898185 C172.835213,19.1898185 180.146678,21.5772449 187.423256,26.7102118 C185.750952,29.8889503 184.496724,32.273004 183.660572,33.8623731 C182.880163,35.3457844 181.841884,37.3193589 180.545735,39.7830965 L180.264042,40.3185428 L187.980736,39.4404401 C188.8725,45.9000184 189.993979,52.6333448 191.345175,59.6404193 C192.69637,66.6474938 194.067249,72.8391276 195.457811,78.2153208 C192.127201,79.4917119 188.827965,80.3414789 185.5601,80.764622 C182.655332,81.1407492 179.988515,81.419289 177.559654,81.6002415 L176.659985,81.6635243 L173.809013,67.5352045 C170.170724,74.1006274 163.402725,80.764622 153.074679,80.764622 C137.230517,80.764622 128.154356,70.5194877 128.154356,54.5237303 C128.154356,33.1562634 146.076185,19.1898185 165.089178,19.1898185 Z M276.477533,31.0199139 C280.767841,26.2426953 291.09097,21.256474 302.532881,23.134369 C313.97479,25.012264 324.182575,33.2032823 325.667691,47.3547166 C326.657768,56.7890062 327.061833,66.2997694 326.720781,73.3231826 C323.355066,73.7629528 320.359433,74.0970836 317.733879,74.3255749 C315.108326,74.5540662 311.854376,74.7508707 307.972028,74.9159881 C307.540689,65.6927347 307.02953,58.2654478 306.438554,52.6341277 C305.552088,44.1871475 299.62548,39.4327923 292.299115,40.7987665 C284.972748,42.1647405 280.658801,50.4640192 281.97859,60.6091581 C282.604726,65.4222323 283.320758,71.1155141 284.496952,77.7573899 C280.209775,78.4251205 276.868753,78.9208418 274.473886,79.2445539 C272.079019,79.5682661 269.775121,79.9076756 267.562191,80.2627825 C265.994211,71.4623 264.521449,62.6287074 263.143906,53.7620043 C261.766361,44.8953013 260.527639,36.8295733 259.427736,29.5648203 C262.308406,28.8779539 265.459523,28.2697148 268.881086,27.7401032 C272.30265,27.2104914 274.58747,26.8946852 275.735547,26.7926843 L275.735547,26.7926843 L276.477533,31.0199139 Z M115.351535,2.38002454 C116.0597,9.09389925 117.044211,18.2592612 118.305069,29.8761102 C119.565927,41.4929593 121.756746,56.2955961 124.877527,74.2840204 C121.741249,74.8518757 118.509519,75.3102104 115.182336,75.6590248 C111.855152,76.007839 108.445452,76.2457764 104.953237,76.3728369 C102.410271,63.7199494 100.437908,51.0365465 99.0361483,38.3226282 C97.6343886,25.6087098 96.394547,14.3633815 95.3166229,4.58664308 C98.4011662,3.97028031 101.40471,3.50115628 104.327256,3.17927104 C107.249801,2.85738578 110.924561,2.5909703 115.351535,2.38002454 Z M408.497435,0 L408.497435,16.1914999 L422.613299,13.5658513 L422.613299,30.0885717 L408.497435,32.2766123 C408.148486,37.9083806 408.148486,40.0529539 408.837499,45.6198356 C409.526513,51.1867175 414.678793,53.8257971 418.202092,53.8257971 C420.453494,53.8257971 423.024083,52.8758592 425.370834,50.1679312 C425.161609,48.297119 425.148307,46.3283682 425.344624,44.2751373 C426.453752,32.675092 437.346925,19.2285932 451.472892,16.4898945 C456.980174,15.4221595 460.544808,15.5820923 466.330263,16.4898945 C472.115717,17.3976968 478.996032,22.0855845 478.881436,28.6607625 C478.824942,31.9022197 477.008714,37.0002416 472.936351,40.0669 C471.655447,41.0325209 470.387352,41.9258355 469.100939,42.7676407 C463.714298,46.29256 458.006466,48.9143257 449.69204,52.1598525 C444.459092,47.1676295 441.838366,44.9154986 441.829863,45.40346 C441.695005,53.1411322 445.489276,55.5490405 450.176582,55.6309821 C455.290008,55.7203731 465.012505,53.3561213 471.109908,45.9015078 C473.861481,47.8600238 476.10232,49.3684849 477.832427,50.4268914 C479.562535,51.4852977 481.28506,52.6428406 483,53.8995203 C477.228719,63.4213686 466.484305,68.5483394 452.978184,69.8903755 C444.672316,70.7156882 437.66161,68.6603967 432.7617,64.5177843 C428.594211,68.4620751 418.973579,71.565708 410.384854,70.3485175 C401.121318,69.0356932 393.825142,62.5210735 391.827002,46.3771163 C391.483356,43.600634 391.414026,42.0424316 391.406969,39.5244743 L391.406464,38.7770608 C391.407575,37.7277161 391.414946,36.5047227 391.416409,34.9830943 L391.416662,34.4646529 L384.292636,35.3435142 L382.594246,20.1299729 L391.827002,18.4895339 L391.827002,2.97594793 C394.838303,2.35229222 397.60135,1.7979177 400.116141,1.31282432 C402.630933,0.827730952 405.424698,0.390122839 408.497435,0 Z M14.5736993,46.6650821 L13.7417916,46.9004297 L34.9578823,43.6066326 L41.137562,70.4761809 C49.6508533,67.297313 60.8068386,62.5728239 65.3153326,58.1553747 C69.8238265,53.7379256 70.6311132,50.8733104 69.844876,46.1288674 C69.0586388,41.3844245 63.7345969,38.5364525 57.1967289,37.7532518 C50.7242395,36.9778831 41.8404235,38.95659 14.5736993,46.6650821 Z M359.338673,27.4100429 C373.777852,27.4100429 384.243436,35.5134972 384.293231,50.0132147 C384.341836,64.5129323 372.294374,68.5111652 356.173921,68.5111652 C342.921524,68.5111652 330.072962,63.4382314 330.072962,51.2494225 C330.072962,38.8924921 341.734742,27.4100429 359.338673,27.4100429 Z M163.632967,35.6302674 C152.806989,35.6302674 144.569832,44.9068782 144.569832,52.9941798 C144.569832,59.6543105 147.158653,63.5790305 153.748378,63.5790305 C161.279494,63.5790305 166.927829,54.5402815 166.927829,45.025809 C166.927829,44.4549407 166.927829,43.8840723 166.867581,43.313204 L166.810156,42.8850527 L177.400786,40.7442964 C172.693839,37.0574382 167.986893,35.6302674 163.632967,35.6302674 Z M358.689218,38.9183571 C350.65627,38.9183571 343.891188,44.617375 343.891188,50.0132147 C343.891188,54.9875044 349.09983,58.0240582 356.329483,58.0240582 C363.358314,58.0240582 367.596,56.1227221 369.251396,51.2494225 C370.906791,46.3761229 368.156622,38.9183571 358.689218,38.9183571 Z M457.850833,29.1152612 C456.698433,29.0951154 455.239563,29.2612182 453.661432,29.6168427 C446.507455,31.2162367 443.277508,36.1552234 441.737371,40.3436391 C449.321847,38.0948348 455.765608,35.1554667 459.46906,33.1125391 C460.950773,32.2762133 461.592472,31.534692 461.605824,30.7685 C461.627524,29.5234381 460.365162,29.1592157 457.850833,29.1152612 Z" id="Shape"></path>
        </g>
        <g id="logo-copy" transform="translate(5.691771, 5.486184)" fill="#FBCB68" fill-rule="nonzero">
            <path d="M114.007227,85.1000886 C125.355182,84.3053552 130.923574,85.8448841 136.433676,87.8875363 C143.637896,90.5401068 146.827347,96.5975326 146.823782,102.828208 C146.821082,107.54874 144.427663,114.361569 141.359124,118.786978 C139.150313,118.595727 136.123661,118.189692 132.279168,117.568873 C128.434673,116.948055 124.050194,116.050841 119.125732,114.877232 C120.900179,110.68365 121.871048,107.69094 122.038337,105.899103 C122.28927,103.211347 120.014208,102.035585 113.90377,102.463519 C107.793333,102.891452 97.9712049,106.69454 94.2595141,110.069694 C90.5478235,113.444848 90.3587325,117.018334 91.4171786,119.61439 C92.4756247,122.210446 98.2905812,125.292223 111.975441,126.55898 C125.6603,127.825738 132.000812,129.233038 138.795078,132.317458 C145.589343,135.401877 152.735612,141.644254 152.407402,151.390511 C152.079192,161.136767 143.60567,169.808139 130.322785,174.298625 C121.467527,177.292282 105.022507,180.192741 80.9877242,183 C79.942389,178.363228 79.0653842,174.450735 78.35671,171.26252 C77.6480358,168.074303 77.0218588,165.088845 76.4781787,162.306145 C97.2923327,159.489912 110.7134,157.277343 116.741381,155.668437 C120.825391,154.578389 125.315972,152.84278 125.161367,150.628455 C125.102316,149.782705 124.952273,147.232969 120.962292,146.622339 C116.972312,146.011709 94.1803497,143.645273 87.6638733,141.238704 C76.581973,137.1461 70.3981364,132.657211 68.4703352,123.891613 C66.542534,115.126015 72.6654643,103.331629 82.7640828,96.1887532 C90.7557406,90.4077059 102.228832,85.9249671 114.007227,85.1000886 Z M169.668001,102.175432 C173.35698,102.175432 176.732624,102.322423 179.794933,102.616404 C179.207864,109.083981 178.6853,114.606203 178.227238,119.183068 L178.227238,119.183068 L194.32488,118.050395 C194.14548,122.923574 193.998712,126.598334 193.884578,129.074675 C193.770443,131.551016 193.674095,133.151069 193.595531,133.874834 L193.595531,133.874834 L177.262767,135.517947 C177.041387,141.67418 176.83321,143.314208 177.251507,149.305237 C177.669806,155.296265 181.478692,158.445466 185.518852,158.619745 C188.553846,158.750666 193.444277,157.296832 195.645784,156.41489 L195.645784,156.41489 L201.369701,170.084997 C196.526387,173.612766 181.556139,176.699565 174.511317,174.053737 C174.349366,173.992914 174.18713,173.931985 174.024692,173.870775 L173.292636,173.592852 C172.966923,173.467968 172.640904,173.34092 172.315253,173.210314 L171.827134,173.011563 C165.64992,170.45585 159.726461,166.364634 158.666775,151.187362 C158.348869,146.63418 158.335621,143.611294 158.531902,137.095598 L158.531902,137.095598 L151.184701,137.683649 L150.143425,122.197402 L159.41211,121.283537 C159.791617,113.836455 160.274906,107.614077 160.861973,102.616404 C163.670349,102.322423 166.605693,102.175432 169.668001,102.175432 Z M335.447207,87.0311509 C336.228681,100.253479 336.954218,113.386045 337.623816,126.428848 C338.258173,138.785188 339.154,152.000344 340.311298,166.074314 L340.506602,168.427928 L320.368054,169.244242 L319.738898,162.673409 C315.937807,167.465802 307.145998,170.966939 298.436993,170.966939 C284.851285,170.966939 269.818631,160.360936 268.991739,144.558893 C267.991079,125.436129 283.453113,114.774219 299.578539,113.697992 C304.961835,113.338706 310.458193,114.774219 315.726821,116.908945 C315.650967,112.54301 315.245498,103.23579 314.510412,88.9872864 L314.425787,87.3531392 L335.447207,87.0311509 Z M404.731381,112.508407 C420.40604,113.46085 430.509753,123.82071 429.556218,138.784919 C428.602683,153.749129 414.911418,161.081266 397.641843,161.081266 C383.444769,161.081266 371.103413,154.418855 371.103413,138.784919 C371.103413,123.150983 385.921606,111.365465 404.731381,112.508407 Z M259.306141,105.455267 C260.061874,114.368157 260.868013,123.461684 261.724554,132.735847 C262.581095,142.010009 263.338229,149.988055 263.995955,156.669982 C262.138021,156.897789 259.314184,157.220411 255.524443,157.637848 C251.734703,158.055284 248.816352,158.358098 246.769392,158.546287 L246.769392,158.546287 L246.199529,152.590765 C241.933292,157.622475 238.313659,160.0625 229.309674,160.0625 C214.761247,160.0625 203.772194,150.802103 202.45129,134.045199 C201.614326,123.427536 203.744375,112.46271 204.304481,107.580484 C208.729549,107.988988 211.934191,108.305173 213.918405,108.52904 C215.902621,108.752908 218.777601,109.11399 222.543347,109.612287 C221.983241,114.494513 220.046628,122.109311 220.480328,132.252112 C220.864987,141.248024 227.28407,145.821028 232.641774,144.580163 C240.31444,142.803145 243.883467,136.739028 243.054004,123.834537 C242.765238,119.342035 242.177992,113.968988 241.421146,107.968242 C243.915482,107.519022 246.050183,107.155411 247.825247,106.877412 L248.757798,106.734266 C249.505201,106.622053 250.1783,106.527529 250.777094,106.450692 C252.93275,106.174081 255.775765,105.842273 259.306141,105.455267 Z M316.661005,126.429037 L311.558608,132.819026 C307.906017,131.063586 305.481816,129.515646 299.317595,130.397589 C293.153376,131.279531 286.548856,136.571185 287.429459,143.626724 C288.310061,150.682264 295.143656,155.532947 301.519103,155.532947 C310.765432,155.532947 317.774907,148.214605 317.42742,141.346324 C317.195763,136.767471 316.94029,131.795042 316.661005,126.429037 Z M362.81809,110.697831 C363.301771,117.906143 363.709707,124.76671 364.041899,131.279531 C364.359648,137.509187 364.684608,144.920743 365.01678,153.514199 L365.06212,154.69336 L347.358069,155.087828 C346.98284,147.731666 346.607611,140.375503 346.232382,133.019341 C345.857154,125.663179 345.482673,118.321684 345.108941,110.994856 L362.81809,110.697831 Z M401.180803,126.052736 C392.178767,126.052736 385.877342,131.908882 385.877342,138.427027 C385.877342,144.435941 391.428831,149.046078 399.398132,148.518465 C407.367433,147.990854 412.433348,143.926711 413.671127,138.376104 C413.783653,137.765027 413.783653,137.255797 413.783653,136.644722 C413.783653,129.719193 408.157381,126.052736 401.180803,126.052736 Z M94.3618529,42.8989624 C95.9865893,55.9167102 90.2519671,66.766746 82.8941224,73.6881401 C75.5362776,80.6095342 61.2554815,85.997257 49.793908,90.3916106 C48.5687477,88.4748901 47.4807382,86.5770646 46.5298796,84.698134 C45.6203626,82.900896 44.367634,79.9462897 42.7716936,75.8343151 L42.551938,75.2664176 L51.643104,116.373015 C46.6158472,117.855534 42.7247176,118.825877 39.9697149,119.284046 C37.3983792,119.71167 34.2522476,120.189555 30.5313202,120.717701 L29.7251807,120.831645 L13.0744501,47.2500678 L6.52152163,49.330984 C4.89134478,45.7175959 3.80390359,43.0060912 3.25919805,41.1964703 C2.50704897,38.6976803 1.42064962,34.4944308 0,28.5867218 C10.9078193,24.1247864 29.9514162,18.5865704 44.5351111,16.350518 C77.8547147,11.2417728 92.7367679,29.8812576 94.3618529,42.8989624 Z M356.044484,85.9736173 C361.227484,86.2101965 365.085128,90.9922139 365.339936,95.8616109 C365.515115,99.2093212 363.891531,102.651444 359.779349,104.494873 C358.606714,105.065043 357.058403,105.349759 355.61939,105.425289 C349.383674,105.752587 341.877594,102.484484 341.580319,96.8035205 C341.303906,91.5212215 347.892428,86.5659043 354.491799,86.0594131 L354.845308,86.036559 L356.044484,85.9736173 Z M238.958824,29.0540878 C242.271066,29.5643086 245.295144,30.0934265 248.031056,30.6414415 C250.76697,31.1894564 253.7619,31.7563684 257.015849,32.3421776 C251.830433,49.1989979 246.345789,65.2230754 241.421146,76.7313896 C235.232613,91.1932684 225.826443,101.392063 215.156383,102.214085 C209.756908,102.630061 199.56168,101.392063 192.995489,93.9938608 L192.995489,93.9938608 L202.844775,79.1974568 C206.119468,81.904188 208.855381,83.2742254 211.052513,83.3075692 C213.332392,83.3421685 215.857094,81.2188475 219.597034,75.1160998 L219.597034,75.1160998 L196.187671,39.7790987 C198.507155,38.0087929 201.393932,36.1319213 204.848,34.148484 C208.302069,32.1650466 211.193092,30.5277029 213.521071,29.236453 L213.521071,29.236453 L229.656937,55.1533837 C231.119595,51.5323332 232.17548,48.5417403 233.174077,45.5761895 L233.571288,44.3898697 C235.022602,40.0344037 236.450914,35.559164 238.958824,29.0540878 Z M165.089178,19.1898185 C172.835213,19.1898185 180.146678,21.5772449 187.423256,26.7102118 C185.750952,29.8889503 184.496724,32.273004 183.660572,33.8623731 C182.880163,35.3457844 181.841884,37.3193589 180.545735,39.7830965 L180.264042,40.3185428 L187.980736,39.4404401 C188.8725,45.9000184 189.993979,52.6333448 191.345175,59.6404193 C192.69637,66.6474938 194.067249,72.8391276 195.457811,78.2153208 C192.127201,79.4917119 188.827965,80.3414789 185.5601,80.764622 C182.655332,81.1407492 179.988515,81.419289 177.559654,81.6002415 L176.659985,81.6635243 L173.809013,67.5352045 C170.170724,74.1006274 163.402725,80.764622 153.074679,80.764622 C137.230517,80.764622 128.154356,70.5194877 128.154356,54.5237303 C128.154356,33.1562634 146.076185,19.1898185 165.089178,19.1898185 Z M276.477533,31.0199139 C280.767841,26.2426953 291.09097,21.256474 302.532881,23.134369 C313.97479,25.012264 324.182575,33.2032823 325.667691,47.3547166 C326.657768,56.7890062 327.061833,66.2997694 326.720781,73.3231826 C323.355066,73.7629528 320.359433,74.0970836 317.733879,74.3255749 C315.108326,74.5540662 311.854376,74.7508707 307.972028,74.9159881 C307.540689,65.6927347 307.02953,58.2654478 306.438554,52.6341277 C305.552088,44.1871475 299.62548,39.4327923 292.299115,40.7987665 C284.972748,42.1647405 280.658801,50.4640192 281.97859,60.6091581 C282.604726,65.4222323 283.320758,71.1155141 284.496952,77.7573899 C280.209775,78.4251205 276.868753,78.9208418 274.473886,79.2445539 C272.079019,79.5682661 269.775121,79.9076756 267.562191,80.2627825 C265.994211,71.4623 264.521449,62.6287074 263.143906,53.7620043 C261.766361,44.8953013 260.527639,36.8295733 259.427736,29.5648203 C262.308406,28.8779539 265.459523,28.2697148 268.881086,27.7401032 C272.30265,27.2104914 274.58747,26.8946852 275.735547,26.7926843 L275.735547,26.7926843 L276.477533,31.0199139 Z M115.351535,2.38002454 C116.0597,9.09389925 117.044211,18.2592612 118.305069,29.8761102 C119.565927,41.4929593 121.756746,56.2955961 124.877527,74.2840204 C121.741249,74.8518757 118.509519,75.3102104 115.182336,75.6590248 C111.855152,76.007839 108.445452,76.2457764 104.953237,76.3728369 C102.410271,63.7199494 100.437908,51.0365465 99.0361483,38.3226282 C97.6343886,25.6087098 96.394547,14.3633815 95.3166229,4.58664308 C98.4011662,3.97028031 101.40471,3.50115628 104.327256,3.17927104 C107.249801,2.85738578 110.924561,2.5909703 115.351535,2.38002454 Z M408.497435,0 L408.497435,16.1914999 L422.613299,13.5658513 L422.613299,30.0885717 L408.497435,32.2766123 C408.148486,37.9083806 408.148486,40.0529539 408.837499,45.6198356 C409.526513,51.1867175 414.678793,53.8257971 418.202092,53.8257971 C420.453494,53.8257971 423.024083,52.8758592 425.370834,50.1679312 C425.161609,48.297119 425.148307,46.3283682 425.344624,44.2751373 C426.453752,32.675092 437.346925,19.2285932 451.472892,16.4898945 C456.980174,15.4221595 460.544808,15.5820923 466.330263,16.4898945 C472.115717,17.3976968 478.996032,22.0855845 478.881436,28.6607625 C478.824942,31.9022197 477.008714,37.0002416 472.936351,40.0669 C471.655447,41.0325209 470.387352,41.9258355 469.100939,42.7676407 C463.714298,46.29256 458.006466,48.9143257 449.69204,52.1598525 C444.459092,47.1676295 441.838366,44.9154986 441.829863,45.40346 C441.695005,53.1411322 445.489276,55.5490405 450.176582,55.6309821 C455.290008,55.7203731 465.012505,53.3561213 471.109908,45.9015078 C473.861481,47.8600238 476.10232,49.3684849 477.832427,50.4268914 C479.562535,51.4852977 481.28506,52.6428406 483,53.8995203 C477.228719,63.4213686 466.484305,68.5483394 452.978184,69.8903755 C444.672316,70.7156882 437.66161,68.6603967 432.7617,64.5177843 C428.594211,68.4620751 418.973579,71.565708 410.384854,70.3485175 C401.121318,69.0356932 393.825142,62.5210735 391.827002,46.3771163 C391.483356,43.600634 391.414026,42.0424316 391.406969,39.5244743 L391.406464,38.7770608 C391.407575,37.7277161 391.414946,36.5047227 391.416409,34.9830943 L391.416662,34.4646529 L384.292636,35.3435142 L382.594246,20.1299729 L391.827002,18.4895339 L391.827002,2.97594793 C394.838303,2.35229222 397.60135,1.7979177 400.116141,1.31282432 C402.630933,0.827730952 405.424698,0.390122839 408.497435,0 Z M14.5736993,46.6650821 L13.7417916,46.9004297 L34.9578823,43.6066326 L41.137562,70.4761809 C49.6508533,67.297313 60.8068386,62.5728239 65.3153326,58.1553747 C69.8238265,53.7379256 70.6311132,50.8733104 69.844876,46.1288674 C69.0586388,41.3844245 63.7345969,38.5364525 57.1967289,37.7532518 C50.7242395,36.9778831 41.8404235,38.95659 14.5736993,46.6650821 Z M359.338673,27.4100429 C373.777852,27.4100429 384.243436,35.5134972 384.293231,50.0132147 C384.341836,64.5129323 372.294374,68.5111652 356.173921,68.5111652 C342.921524,68.5111652 330.072962,63.4382314 330.072962,51.2494225 C330.072962,38.8924921 341.734742,27.4100429 359.338673,27.4100429 Z M163.632967,35.6302674 C152.806989,35.6302674 144.569832,44.9068782 144.569832,52.9941798 C144.569832,59.6543105 147.158653,63.5790305 153.748378,63.5790305 C161.279494,63.5790305 166.927829,54.5402815 166.927829,45.025809 C166.927829,44.4549407 166.927829,43.8840723 166.867581,43.313204 L166.810156,42.8850527 L177.400786,40.7442964 C172.693839,37.0574382 167.986893,35.6302674 163.632967,35.6302674 Z M358.689218,38.9183571 C350.65627,38.9183571 343.891188,44.617375 343.891188,50.0132147 C343.891188,54.9875044 349.09983,58.0240582 356.329483,58.0240582 C363.358314,58.0240582 367.596,56.1227221 369.251396,51.2494225 C370.906791,46.3761229 368.156622,38.9183571 358.689218,38.9183571 Z M457.850833,29.1152612 C456.698433,29.0951154 455.239563,29.2612182 453.661432,29.6168427 C446.507455,31.2162367 443.277508,36.1552234 441.737371,40.3436391 C449.321847,38.0948348 455.765608,35.1554667 459.46906,33.1125391 C460.950773,32.2762133 461.592472,31.534692 461.605824,30.7685 C461.627524,29.5234381 460.365162,29.1592157 457.850833,29.1152612 Z" id="Shape"></path>
        </g>
    </g>
</svg>