<svg xmlns="http://www.w3.org/2000/svg" width="385" height="152" viewBox="0 0 385 152">
  <g fill="none" transform="translate(.681)">
    <path fill="#C3C1CB" d="M92.3598961,66.8205633 C101.060692,66.2121444 105.330134,67.3907515 109.554884,68.9545314 C115.078562,70.9852424 117.524003,75.6225863 117.52127,80.3925634 C117.5192,84.0064303 115.684098,89.2220836 113.331363,92.6100151 C111.637806,92.4635999 109.317187,92.1527542 106.369506,91.6774782 C103.421824,91.2022022 100.060121,90.5153283 96.2843971,89.6168565 C97.6449161,86.4064029 98.3893081,84.1152935 98.5175731,82.7435283 C98.7099707,80.6858806 96.9656166,79.7857607 92.2805727,80.1133709 C87.5955289,80.4409811 80.0646277,83.352486 77.2187702,85.9363807 C74.3729128,88.5202754 74.2279314,91.2560055 75.0394718,93.243451 C75.8510121,95.2308965 80.3095025,97.5901925 90.8020685,98.5599758 C101.294634,99.5297591 106.156083,100.607137 111.365437,102.968456 C116.574791,105.329774 122.054036,110.10871 121.802388,117.570088 C121.55074,125.031466 115.053853,131.669951 104.869492,135.107703 C98.0799175,137.399538 85.4710591,139.620023 67.0429163,141.769158 C66.2414285,138.219415 65.5690043,135.224153 65.0256439,132.783372 C64.4822835,130.34259 64.002176,128.057032 63.5853212,125.926699 C79.5441173,123.770694 89.8344266,122.076832 94.4562489,120.845112 C97.5875739,120.010611 101.030628,118.681892 100.912088,116.986686 C100.866812,116.339211 100.75177,114.387226 97.6925397,113.91975 C94.6333097,113.452274 77.1580726,111.640617 72.1617072,109.798236 C63.6649032,106.665088 58.9235821,103.228558 57.4454828,96.5179365 C55.9673835,89.8073154 60.662006,80.7779642 68.4049003,75.3096397 C74.5323287,70.8838811 83.3290702,67.4520601 92.3598961,66.8205633 Z M135.036574,79.8928225 C137.865018,79.8928225 140.453219,80.005353 142.801177,80.2304139 C142.351055,85.181755 141.95039,89.4093659 141.599181,92.9132466 L141.599181,92.9132466 L153.941695,92.0461141 C153.804144,95.7768417 153.691613,98.5901037 153.604103,100.4859 C153.516593,102.381696 153.44272,103.606638 153.382483,104.160726 L153.382483,104.160726 L140.859694,105.418633 C140.689956,110.13162 140.530341,111.387166 140.851061,115.973679 C141.171782,120.560191 144.092162,122.971104 147.189866,123.104526 C149.516881,123.204754 153.266512,122.091752 154.954469,121.416569 L154.954469,121.416569 L159.343157,131.881904 C155.629652,134.582635 144.151543,136.945775 138.75008,134.920226 C138.625908,134.873662 138.501517,134.827017 138.376971,134.780157 L137.815683,134.567389 C137.56595,134.471783 137.315982,134.374519 137.066296,134.274532 L136.692042,134.122376 C131.955798,132.165815 127.414116,129.03373 126.601625,117.414565 C126.357878,113.928815 126.34772,111.614604 126.498214,106.626425 L126.498214,106.626425 L120.864909,107.076616 L120.066533,95.2209105 L127.173094,94.5212889 C127.464073,88.8200752 127.834624,84.0564502 128.284745,80.2304139 C130.438006,80.005353 132.688616,79.8928225 135.036574,79.8928225 Z M262.144145,68.298914 C262.743323,78.4214453 263.299612,88.4752577 263.813012,98.4603514 C264.299391,107.919914 264.986247,118.036954 265.87358,128.811471 L266.023325,130.613312 L250.582535,131.238252 L250.100143,126.207863 C247.18574,129.876744 240.433136,132.207749 233.767375,132.557086 C221.468575,133.201639 211.445158,125.074251 210.811157,112.976783 C210.043923,98.3370942 221.716054,89.6856786 234.578157,89.0116043 C238.709051,88.7951133 242.984366,89.537993 247.023971,91.1722614 C246.963617,87.7037327 246.631104,80.161451 246.026432,68.5454165 L262.144145,68.298914 Z M315.266266,87.8033706 C327.284467,88.5325256 335.031267,96.4636559 334.300165,107.919708 C333.569063,119.37576 323.071586,124.988976 309.830518,124.988976 C298.945223,124.988976 289.482759,119.888478 289.482759,107.919708 C289.482759,95.9509375 300.844283,86.9283759 315.266266,87.8033706 Z M203.764652,82.4037443 C204.344094,89.2271272 204.962183,96.1887988 205.618917,103.288759 C206.275651,110.388719 206.856167,116.496419 207.360464,121.611858 C205.935934,121.786259 203.770819,122.033247 200.865118,122.352821 C197.959418,122.672395 195.721836,122.904218 194.152375,123.048289 L194.152375,123.048289 L193.715445,118.488959 C190.444401,122.341052 187.669127,124.209046 180.765519,124.209046 C169.610831,124.209046 161.185216,117.119625 160.172442,104.291151 C159.530718,96.1626561 161.163886,87.7683867 161.593335,84.0307329 C164.986159,84.343468 167.443248,84.5855279 168.964601,84.7569126 C170.485955,84.9282973 172.690283,85.2047287 175.577586,85.5862069 C175.148137,89.3238606 173.663281,95.1534717 173.995811,102.918429 C174.29074,109.805371 179.212431,113.306296 183.320333,112.356335 C189.203182,110.995915 191.939655,106.353448 191.303682,96.4742418 C191.082277,93.034946 190.632019,88.9215377 190.051724,84.3275862 C191.964202,83.9836791 193.600937,83.7053125 194.961928,83.4924863 L195.676941,83.3828992 C196.249996,83.2969931 196.76608,83.2246285 197.225192,83.1658053 C198.877994,82.9540417 201.057814,82.7000214 203.764652,82.4037443 Z M247.740236,98.4604956 L243.828085,103.352438 C241.027541,102.008537 239.168838,100.823491 234.442557,101.498674 C229.716277,102.173857 224.652406,106.224954 225.327589,111.626417 C226.002772,117.02788 231.242281,120.741386 236.130515,120.741386 C243.219935,120.741386 248.594296,115.138731 248.327868,109.880626 C248.15025,106.375223 247.954372,102.568513 247.740236,98.4604956 Z M283.130169,86.4172594 C283.501021,91.9356795 283.813797,97.1878788 284.068498,102.173857 C284.312125,106.943054 284.561281,112.61707 284.815966,119.195906 L284.85073,120.098629 L271.276537,120.400619 C270.988838,114.76901 270.70114,109.137401 270.413441,103.505792 C270.125743,97.8741832 269.838618,92.2538029 269.552067,86.6446512 L283.130169,86.4172594 Z M312.543938,98.1724138 C305.641824,98.1724138 300.810345,102.655665 300.810345,107.645719 C300.810345,112.245924 306.265194,116.098716 311.177114,115.371355 C316.089035,114.643994 321.17158,111.856076 322.12062,107.606734 C322.206897,107.138916 322.206897,106.749068 322.206897,106.281251 C322.206897,100.979319 317.893076,98.1724138 312.543938,98.1724138 Z M77.2972362,34.5129232 C78.5429672,44.4788352 74.1460714,52.7852261 68.5046053,58.0839925 C62.8631392,63.3827589 51.9136519,67.5074026 43.1257418,70.8715592 C42.186377,69.404188 41.3521696,67.9512821 40.6231196,66.5128415 C39.9257674,65.1369418 38.9652652,62.8750032 37.7416129,59.7270257 L37.5731201,59.2922641 L44.5435723,90.7619732 C40.6890334,91.8969351 37.7055951,92.6397947 35.5932572,92.990552 C33.6217419,93.3179254 31.2095145,93.6837768 28.356575,94.088106 L27.7384852,94.1753369 L14.9719027,37.8439705 L9.94758847,39.4370439 C8.69768612,36.670766 7.86391443,34.5949371 7.4462734,33.2095574 C6.86957959,31.2965751 6.03660671,28.0787209 4.94735477,23.5559948 C13.310686,20.1401001 27.9119463,15.9002443 39.0936746,14.1884043 C64.64075,10.2773356 76.0512379,24.5470441 77.2972362,34.5129232 Z M277.936655,67.4893049 C281.910607,67.6704213 284.868371,71.3313591 285.063739,75.0591915 C285.198054,77.6220762 283.953206,80.2572398 280.800281,81.6685013 C279.901189,82.1050031 278.714055,82.3229712 277.610724,82.3807943 C272.829625,82.631361 267.074503,80.1294209 266.846574,75.7802831 C266.63464,71.736348 271.686245,67.9427382 276.746168,67.5549871 L277.017213,67.5374908 L277.936655,67.4893049 Z M188.163793,23.9137931 C190.703382,24.3043995 193.022027,24.7094728 195.119728,25.1290131 C197.21743,25.5485533 199.513727,25.9825604 202.008621,26.4310345 C198.032817,39.3360001 193.827586,51.6034483 190.051724,60.4137931 C185.306802,71.4852791 178.094828,79.2931034 169.913793,79.9224138 C165.773864,80.2408699 157.956897,79.2931034 152.922414,73.6293103 L152.922414,73.6293103 L160.474138,62.3017241 C162.984937,64.3738986 165.082638,65.4227491 166.767241,65.4482759 C168.515288,65.4747639 170.451048,63.8492269 173.318565,59.1771863 L173.318565,59.1771863 L155.369949,32.1244695 C157.148363,30.7691881 159.361736,29.3323238 162.010067,27.8138767 C164.658398,26.2954295 166.875027,25.041939 168.659954,24.0534052 L168.659954,24.0534052 L181.031775,43.8944603 C182.153236,41.1223164 182.962813,38.8328277 183.728465,36.5625104 L184.033018,35.6543073 C185.145781,32.3199217 186.240908,28.8938417 188.163793,23.9137931 Z M131.525862,16.362069 C137.464964,16.362069 143.07087,18.1897954 148.650026,22.1194073 C147.367824,24.5529333 146.406172,26.3780777 145.765071,27.5948406 C145.166709,28.7304861 144.370632,30.2413826 143.376838,32.1275301 L143.160856,32.5374482 L149.077462,31.8652049 C149.761202,36.810422 150.621072,41.9652106 151.657072,47.3295708 C152.693071,52.693931 153.744162,57.4340196 154.810345,61.5498366 C152.256673,62.526995 149.727056,63.1775456 147.221492,63.5014885 C144.994325,63.7894377 142.949602,64.0026776 141.087326,64.1412082 L140.397524,64.1896552 L138.211604,53.3735299 C135.422026,58.3997777 130.232811,63.5014885 122.314008,63.5014885 C110.165844,63.5014885 103.206897,55.658188 103.206897,43.4124207 C103.206897,27.0542688 116.948066,16.362069 131.525862,16.362069 Z M216.93044,25.4187577 C220.21994,21.7614937 228.134973,17.9442249 236.907807,19.3818727 C245.68064,20.8195205 253.507235,27.0902648 254.645915,37.9240858 C255.405035,45.1466331 255.714843,52.4277259 255.453349,57.8045944 C252.872761,58.1412664 250.575925,58.3970647 248.562839,58.5719893 C246.549754,58.7469139 244.054859,58.8975802 241.078154,59.0239881 C240.747434,51.9630023 240.355514,46.2769429 239.902396,41.96581 C239.222718,35.4991106 234.678621,31.85935 229.061291,32.9050899 C223.44396,33.9508297 220.136336,40.3044542 221.148255,48.0712018 C221.628331,51.7559156 222.177333,56.1144841 223.079154,61.1992615 C219.792055,61.7104516 217.2304,62.0899577 215.394188,62.3377799 C213.557976,62.5856021 211.791513,62.8454416 210.094797,63.1172985 C208.892583,56.3799707 207.763375,49.617295 206.707174,42.8292711 C205.650972,36.0412473 204.701209,29.8664207 203.857882,24.3047912 C206.066573,23.7789514 208.482623,23.3133058 211.106031,22.9078545 C213.72944,22.5024031 215.481276,22.2606334 216.361539,22.1825452 L216.361539,22.1825452 Z M93.3906149,3.49310499 C93.9335846,8.63300213 94.6884371,15.6496683 95.6551724,24.5431034 C96.6219077,33.4365386 98.3016701,44.7688964 100.69446,58.5401767 C98.2897881,58.974906 95.8119298,59.3257903 93.2608848,59.5928298 C90.7098397,59.8598692 88.0955273,60.0420254 85.4179474,60.1392983 C83.468184,50.45271 81.9559181,40.7427602 80.8811497,31.0094489 C79.8063812,21.2761376 78.8557598,12.6671252 78.0292852,5.18241151 C80.3942911,4.71054669 82.6971928,4.35140248 84.9379903,4.1049789 C87.1787879,3.85855531 89.9963294,3.65459735 93.3906149,3.49310499 Z M318.153805,1.67104517 L318.153805,14.0666658 L328.976834,12.0565652 L328.976834,24.7057562 L318.153805,26.3808401 C317.886256,30.6923161 317.886256,32.3341231 318.414542,36.5959243 C318.942828,40.8577256 322.893226,42.8781085 325.594638,42.8781085 C327.320851,42.8781085 329.291794,42.1508708 331.091114,40.0777801 C330.930695,38.6455546 330.920496,37.1383509 331.071018,35.5664724 C331.921417,26.6859016 340.273519,16.3917535 351.104294,14.2951058 C355.326882,13.4776869 358.059987,13.6001256 362.495858,14.2951058 C366.931728,14.9900861 372.207058,18.5789616 372.119194,23.6126776 C372.075879,26.0942188 370.683326,29.9970781 367.560931,32.3447997 C366.578826,33.0840438 365.606542,33.7679328 364.620213,34.4123881 C360.490124,37.1109375 356.113769,39.1180655 349.738865,41.6027222 C345.726617,37.7808587 343.717233,36.0567096 343.710713,36.430275 C343.607314,42.3539541 346.516488,44.1973607 350.110377,44.2600922 C354.030984,44.3285267 361.485496,42.5185419 366.160546,36.8115622 C368.270254,38.3109305 369.988368,39.4657532 371.31489,40.2760305 C372.641412,41.0863077 373.96212,41.9724803 375.277013,42.9345483 C370.85201,50.2241274 362.613966,54.1491489 352.258444,55.1765627 C345.890102,55.808392 340.514797,54.2349359 336.757898,51.0635032 C333.562567,54.0831081 326.186159,56.4591361 319.600942,55.5272995 C312.498329,54.5222492 306.904146,49.5348944 305.372116,37.1756707 C305.108633,35.0500973 305.055476,33.8571945 305.050065,31.9295384 L305.049678,31.3573459 C305.05053,30.554006 305.056181,29.6177269 305.057303,28.4528238 L305.057497,28.055924 L299.595306,28.7287481 L298.293103,17.0818168 L305.372116,15.8259567 L305.372116,3.94932216 C307.680965,3.47187414 309.799471,3.04746526 311.727632,2.6760955 C313.655793,2.30472574 315.797851,1.96970896 318.153805,1.67104517 Z M16.1214191,37.3961268 L15.4835721,37.5763003 L31.7505444,35.0546896 L36.4886783,55.6250339 C43.0160577,53.1914088 51.5696648,49.5745126 55.0264537,46.1926749 C58.4832426,42.8108373 59.1022119,40.6177926 58.4993818,36.9856204 C57.8965517,33.3534483 53.8144593,31.173145 48.8016924,30.5735552 C43.8390531,29.9799612 37.027582,31.4947869 16.1214191,37.3961268 Z M280.462402,22.6551724 C291.533326,22.6551724 299.557583,28.8588809 299.595649,39.9593348 C299.633029,51.0597887 290.395902,54.1206897 278.035898,54.1206897 C267.874913,54.1206897 258.02356,50.237037 258.02356,40.9057303 C258.02356,31.4457159 266.964974,22.6551724 280.462402,22.6551724 Z M130.409344,28.9482759 C122.108763,28.9482759 115.793103,36.0501101 115.793103,42.2414527 C115.793103,47.3402054 117.778025,50.3448276 122.830552,50.3448276 C128.60487,50.3448276 132.935607,43.4250917 132.935607,36.1411592 C132.935607,35.7041233 132.935607,35.2670873 132.889413,34.8300514 L132.845384,34.5022744 L140.965517,32.8633896 C137.356569,30.0408657 133.747621,28.9482759 130.409344,28.9482759 Z M279.964447,31.4655172 C273.80536,31.4655172 268.618382,35.8284771 268.618382,39.9593348 C268.618382,43.7674692 272.611994,46.0921438 278.155172,46.0921438 C283.544374,46.0921438 286.793527,44.6365504 288.062765,40.9057303 C289.332003,37.1749102 287.223371,31.4655172 279.964447,31.4655172 Z M355.994441,23.9606252 C355.110863,23.9452023 353.992307,24.0723646 352.782309,24.3446177 C347.297154,25.5690553 344.820663,29.350163 343.639797,32.556661 C349.455028,30.8350586 354.39564,28.5847858 357.235181,27.0207951 C358.371252,26.3805346 358.86326,25.812853 358.873498,25.2262844 C358.890136,24.2731105 357.922247,23.9942752 355.994441,23.9606252 Z" transform="translate(0 6)"/>
    <path fill="#000" d="M92.3598961,66.8205633 C101.060692,66.2121444 105.330134,67.3907515 109.554884,68.9545314 C115.078562,70.9852424 117.524003,75.6225863 117.52127,80.3925634 C117.5192,84.0064303 115.684098,89.2220836 113.331363,92.6100151 C111.637806,92.4635999 109.317187,92.1527542 106.369506,91.6774782 C103.421824,91.2022022 100.060121,90.5153283 96.2843971,89.6168565 C97.6449161,86.4064029 98.3893081,84.1152935 98.5175731,82.7435283 C98.7099707,80.6858806 96.9656166,79.7857607 92.2805727,80.1133709 C87.5955289,80.4409811 80.0646277,83.352486 77.2187702,85.9363807 C74.3729128,88.5202754 74.2279314,91.2560055 75.0394718,93.243451 C75.8510121,95.2308965 80.3095025,97.5901925 90.8020685,98.5599758 C101.294634,99.5297591 106.156083,100.607137 111.365437,102.968456 C116.574791,105.329774 122.054036,110.10871 121.802388,117.570088 C121.55074,125.031466 115.053853,131.669951 104.869492,135.107703 C98.0799175,137.399538 85.4710591,139.620023 67.0429163,141.769158 C66.2414285,138.219415 65.5690043,135.224153 65.0256439,132.783372 C64.4822835,130.34259 64.002176,128.057032 63.5853212,125.926699 C79.5441173,123.770694 89.8344266,122.076832 94.4562489,120.845112 C97.5875739,120.010611 101.030628,118.681892 100.912088,116.986686 C100.866812,116.339211 100.75177,114.387226 97.6925397,113.91975 C94.6333097,113.452274 77.1580726,111.640617 72.1617072,109.798236 C63.6649032,106.665088 58.9235821,103.228558 57.4454828,96.5179365 C55.9673835,89.8073154 60.662006,80.7779642 68.4049003,75.3096397 C74.5323287,70.8838811 83.3290702,67.4520601 92.3598961,66.8205633 Z M135.036574,79.8928225 C137.865018,79.8928225 140.453219,80.005353 142.801177,80.2304139 C142.351055,85.181755 141.95039,89.4093659 141.599181,92.9132466 L141.599181,92.9132466 L153.941695,92.0461141 C153.804144,95.7768417 153.691613,98.5901037 153.604103,100.4859 C153.516593,102.381696 153.44272,103.606638 153.382483,104.160726 L153.382483,104.160726 L140.859694,105.418633 C140.689956,110.13162 140.530341,111.387166 140.851061,115.973679 C141.171782,120.560191 144.092162,122.971104 147.189866,123.104526 C149.516881,123.204754 153.266512,122.091752 154.954469,121.416569 L154.954469,121.416569 L159.343157,131.881904 C155.629652,134.582635 144.151543,136.945775 138.75008,134.920226 C138.625908,134.873662 138.501517,134.827017 138.376971,134.780157 L137.815683,134.567389 C137.56595,134.471783 137.315982,134.374519 137.066296,134.274532 L136.692042,134.122376 C131.955798,132.165815 127.414116,129.03373 126.601625,117.414565 C126.357878,113.928815 126.34772,111.614604 126.498214,106.626425 L126.498214,106.626425 L120.864909,107.076616 L120.066533,95.2209105 L127.173094,94.5212889 C127.464073,88.8200752 127.834624,84.0564502 128.284745,80.2304139 C130.438006,80.005353 132.688616,79.8928225 135.036574,79.8928225 Z M262.144145,68.298914 C262.743323,78.4214453 263.299612,88.4752577 263.813012,98.4603514 C264.299391,107.919914 264.986247,118.036954 265.87358,128.811471 L266.023325,130.613312 L250.582535,131.238252 L250.100143,126.207863 C247.18574,129.876744 240.433136,132.207749 233.767375,132.557086 C221.468575,133.201639 211.445158,125.074251 210.811157,112.976783 C210.043923,98.3370942 221.716054,89.6856786 234.578157,89.0116043 C238.709051,88.7951133 242.984366,89.537993 247.023971,91.1722614 C246.963617,87.7037327 246.631104,80.161451 246.026432,68.5454165 L262.144145,68.298914 Z M315.266266,87.8033706 C327.284467,88.5325256 335.031267,96.4636559 334.300165,107.919708 C333.569063,119.37576 323.071586,124.988976 309.830518,124.988976 C298.945223,124.988976 289.482759,119.888478 289.482759,107.919708 C289.482759,95.9509375 300.844283,86.9283759 315.266266,87.8033706 Z M203.764652,82.4037443 C204.344094,89.2271272 204.962183,96.1887988 205.618917,103.288759 C206.275651,110.388719 206.856167,116.496419 207.360464,121.611858 C205.935934,121.786259 203.770819,122.033247 200.865118,122.352821 C197.959418,122.672395 195.721836,122.904218 194.152375,123.048289 L194.152375,123.048289 L193.715445,118.488959 C190.444401,122.341052 187.669127,124.209046 180.765519,124.209046 C169.610831,124.209046 161.185216,117.119625 160.172442,104.291151 C159.530718,96.1626561 161.163886,87.7683867 161.593335,84.0307329 C164.986159,84.343468 167.443248,84.5855279 168.964601,84.7569126 C170.485955,84.9282973 172.690283,85.2047287 175.577586,85.5862069 C175.148137,89.3238606 173.663281,95.1534717 173.995811,102.918429 C174.29074,109.805371 179.212431,113.306296 183.320333,112.356335 C189.203182,110.995915 191.939655,106.353448 191.303682,96.4742418 C191.082277,93.034946 190.632019,88.9215377 190.051724,84.3275862 C191.964202,83.9836791 193.600937,83.7053125 194.961928,83.4924863 L195.676941,83.3828992 C196.249996,83.2969931 196.76608,83.2246285 197.225192,83.1658053 C198.877994,82.9540417 201.057814,82.7000214 203.764652,82.4037443 Z M247.740236,98.4604956 L243.828085,103.352438 C241.027541,102.008537 239.168838,100.823491 234.442557,101.498674 C229.716277,102.173857 224.652406,106.224954 225.327589,111.626417 C226.002772,117.02788 231.242281,120.741386 236.130515,120.741386 C243.219935,120.741386 248.594296,115.138731 248.327868,109.880626 C248.15025,106.375223 247.954372,102.568513 247.740236,98.4604956 Z M283.130169,86.4172594 C283.501021,91.9356795 283.813797,97.1878788 284.068498,102.173857 C284.312125,106.943054 284.561281,112.61707 284.815966,119.195906 L284.85073,120.098629 L271.276537,120.400619 C270.988838,114.76901 270.70114,109.137401 270.413441,103.505792 C270.125743,97.8741832 269.838618,92.2538029 269.552067,86.6446512 L283.130169,86.4172594 Z M312.543938,98.1724138 C305.641824,98.1724138 300.810345,102.655665 300.810345,107.645719 C300.810345,112.245924 306.265194,116.098716 311.177114,115.371355 C316.089035,114.643994 321.17158,111.856076 322.12062,107.606734 C322.206897,107.138916 322.206897,106.749068 322.206897,106.281251 C322.206897,100.979319 317.893076,98.1724138 312.543938,98.1724138 Z M77.2972362,34.5129232 C78.5429672,44.4788352 74.1460714,52.7852261 68.5046053,58.0839925 C62.8631392,63.3827589 51.9136519,67.5074026 43.1257418,70.8715592 C42.186377,69.404188 41.3521696,67.9512821 40.6231196,66.5128415 C39.9257674,65.1369418 38.9652652,62.8750032 37.7416129,59.7270257 L37.5731201,59.2922641 L44.5435723,90.7619732 C40.6890334,91.8969351 37.7055951,92.6397947 35.5932572,92.990552 C33.6217419,93.3179254 31.2095145,93.6837768 28.356575,94.088106 L27.7384852,94.1753369 L14.9719027,37.8439705 L9.94758847,39.4370439 C8.69768612,36.670766 7.86391443,34.5949371 7.4462734,33.2095574 C6.86957959,31.2965751 6.03660671,28.0787209 4.94735477,23.5559948 C13.310686,20.1401001 27.9119463,15.9002443 39.0936746,14.1884043 C64.64075,10.2773356 76.0512379,24.5470441 77.2972362,34.5129232 Z M277.936655,67.4893049 C281.910607,67.6704213 284.868371,71.3313591 285.063739,75.0591915 C285.198054,77.6220762 283.953206,80.2572398 280.800281,81.6685013 C279.901189,82.1050031 278.714055,82.3229712 277.610724,82.3807943 C272.829625,82.631361 267.074503,80.1294209 266.846574,75.7802831 C266.63464,71.736348 271.686245,67.9427382 276.746168,67.5549871 L277.017213,67.5374908 L277.936655,67.4893049 Z M188.163793,23.9137931 C190.703382,24.3043995 193.022027,24.7094728 195.119728,25.1290131 C197.21743,25.5485533 199.513727,25.9825604 202.008621,26.4310345 C198.032817,39.3360001 193.827586,51.6034483 190.051724,60.4137931 C185.306802,71.4852791 178.094828,79.2931034 169.913793,79.9224138 C165.773864,80.2408699 157.956897,79.2931034 152.922414,73.6293103 L152.922414,73.6293103 L160.474138,62.3017241 C162.984937,64.3738986 165.082638,65.4227491 166.767241,65.4482759 C168.515288,65.4747639 170.451048,63.8492269 173.318565,59.1771863 L173.318565,59.1771863 L155.369949,32.1244695 C157.148363,30.7691881 159.361736,29.3323238 162.010067,27.8138767 C164.658398,26.2954295 166.875027,25.041939 168.659954,24.0534052 L168.659954,24.0534052 L181.031775,43.8944603 C182.153236,41.1223164 182.962813,38.8328277 183.728465,36.5625104 L184.033018,35.6543073 C185.145781,32.3199217 186.240908,28.8938417 188.163793,23.9137931 Z M131.525862,16.362069 C137.464964,16.362069 143.07087,18.1897954 148.650026,22.1194073 C147.367824,24.5529333 146.406172,26.3780777 145.765071,27.5948406 C145.166709,28.7304861 144.370632,30.2413826 143.376838,32.1275301 L143.160856,32.5374482 L149.077462,31.8652049 C149.761202,36.810422 150.621072,41.9652106 151.657072,47.3295708 C152.693071,52.693931 153.744162,57.4340196 154.810345,61.5498366 C152.256673,62.526995 149.727056,63.1775456 147.221492,63.5014885 C144.994325,63.7894377 142.949602,64.0026776 141.087326,64.1412082 L140.397524,64.1896552 L138.211604,53.3735299 C135.422026,58.3997777 130.232811,63.5014885 122.314008,63.5014885 C110.165844,63.5014885 103.206897,55.658188 103.206897,43.4124207 C103.206897,27.0542688 116.948066,16.362069 131.525862,16.362069 Z M216.93044,25.4187577 C220.21994,21.7614937 228.134973,17.9442249 236.907807,19.3818727 C245.68064,20.8195205 253.507235,27.0902648 254.645915,37.9240858 C255.405035,45.1466331 255.714843,52.4277259 255.453349,57.8045944 C252.872761,58.1412664 250.575925,58.3970647 248.562839,58.5719893 C246.549754,58.7469139 244.054859,58.8975802 241.078154,59.0239881 C240.747434,51.9630023 240.355514,46.2769429 239.902396,41.96581 C239.222718,35.4991106 234.678621,31.85935 229.061291,32.9050899 C223.44396,33.9508297 220.136336,40.3044542 221.148255,48.0712018 C221.628331,51.7559156 222.177333,56.1144841 223.079154,61.1992615 C219.792055,61.7104516 217.2304,62.0899577 215.394188,62.3377799 C213.557976,62.5856021 211.791513,62.8454416 210.094797,63.1172985 C208.892583,56.3799707 207.763375,49.617295 206.707174,42.8292711 C205.650972,36.0412473 204.701209,29.8664207 203.857882,24.3047912 C206.066573,23.7789514 208.482623,23.3133058 211.106031,22.9078545 C213.72944,22.5024031 215.481276,22.2606334 216.361539,22.1825452 L216.361539,22.1825452 Z M93.3906149,3.49310499 C93.9335846,8.63300213 94.6884371,15.6496683 95.6551724,24.5431034 C96.6219077,33.4365386 98.3016701,44.7688964 100.69446,58.5401767 C98.2897881,58.974906 95.8119298,59.3257903 93.2608848,59.5928298 C90.7098397,59.8598692 88.0955273,60.0420254 85.4179474,60.1392983 C83.468184,50.45271 81.9559181,40.7427602 80.8811497,31.0094489 C79.8063812,21.2761376 78.8557598,12.6671252 78.0292852,5.18241151 C80.3942911,4.71054669 82.6971928,4.35140248 84.9379903,4.1049789 C87.1787879,3.85855531 89.9963294,3.65459735 93.3906149,3.49310499 Z M318.153805,1.67104517 L318.153805,14.0666658 L328.976834,12.0565652 L328.976834,24.7057562 L318.153805,26.3808401 C317.886256,30.6923161 317.886256,32.3341231 318.414542,36.5959243 C318.942828,40.8577256 322.893226,42.8781085 325.594638,42.8781085 C327.320851,42.8781085 329.291794,42.1508708 331.091114,40.0777801 C330.930695,38.6455546 330.920496,37.1383509 331.071018,35.5664724 C331.921417,26.6859016 340.273519,16.3917535 351.104294,14.2951058 C355.326882,13.4776869 358.059987,13.6001256 362.495858,14.2951058 C366.931728,14.9900861 372.207058,18.5789616 372.119194,23.6126776 C372.075879,26.0942188 370.683326,29.9970781 367.560931,32.3447997 C366.578826,33.0840438 365.606542,33.7679328 364.620213,34.4123881 C360.490124,37.1109375 356.113769,39.1180655 349.738865,41.6027222 C345.726617,37.7808587 343.717233,36.0567096 343.710713,36.430275 C343.607314,42.3539541 346.516488,44.1973607 350.110377,44.2600922 C354.030984,44.3285267 361.485496,42.5185419 366.160546,36.8115622 C368.270254,38.3109305 369.988368,39.4657532 371.31489,40.2760305 C372.641412,41.0863077 373.96212,41.9724803 375.277013,42.9345483 C370.85201,50.2241274 362.613966,54.1491489 352.258444,55.1765627 C345.890102,55.808392 340.514797,54.2349359 336.757898,51.0635032 C333.562567,54.0831081 326.186159,56.4591361 319.600942,55.5272995 C312.498329,54.5222492 306.904146,49.5348944 305.372116,37.1756707 C305.108633,35.0500973 305.055476,33.8571945 305.050065,31.9295384 L305.049678,31.3573459 C305.05053,30.554006 305.056181,29.6177269 305.057303,28.4528238 L305.057497,28.055924 L299.595306,28.7287481 L298.293103,17.0818168 L305.372116,15.8259567 L305.372116,3.94932216 C307.680965,3.47187414 309.799471,3.04746526 311.727632,2.6760955 C313.655793,2.30472574 315.797851,1.96970896 318.153805,1.67104517 Z M16.1214191,37.3961268 L15.4835721,37.5763003 L31.7505444,35.0546896 L36.4886783,55.6250339 C43.0160577,53.1914088 51.5696648,49.5745126 55.0264537,46.1926749 C58.4832426,42.8108373 59.1022119,40.6177926 58.4993818,36.9856204 C57.8965517,33.3534483 53.8144593,31.173145 48.8016924,30.5735552 C43.8390531,29.9799612 37.027582,31.4947869 16.1214191,37.3961268 Z M280.462402,22.6551724 C291.533326,22.6551724 299.557583,28.8588809 299.595649,39.9593348 C299.633029,51.0597887 290.395902,54.1206897 278.035898,54.1206897 C267.874913,54.1206897 258.02356,50.237037 258.02356,40.9057303 C258.02356,31.4457159 266.964974,22.6551724 280.462402,22.6551724 Z M130.409344,28.9482759 C122.108763,28.9482759 115.793103,36.0501101 115.793103,42.2414527 C115.793103,47.3402054 117.778025,50.3448276 122.830552,50.3448276 C128.60487,50.3448276 132.935607,43.4250917 132.935607,36.1411592 C132.935607,35.7041233 132.935607,35.2670873 132.889413,34.8300514 L132.845384,34.5022744 L140.965517,32.8633896 C137.356569,30.0408657 133.747621,28.9482759 130.409344,28.9482759 Z M279.964447,31.4655172 C273.80536,31.4655172 268.618382,35.8284771 268.618382,39.9593348 C268.618382,43.7674692 272.611994,46.0921438 278.155172,46.0921438 C283.544374,46.0921438 286.793527,44.6365504 288.062765,40.9057303 C289.332003,37.1749102 287.223371,31.4655172 279.964447,31.4655172 Z M355.994441,23.9606252 C355.110863,23.9452023 353.992307,24.0723646 352.782309,24.3446177 C347.297154,25.5690553 344.820663,29.350163 343.639797,32.556661 C349.455028,30.8350586 354.39564,28.5847858 357.235181,27.0207951 C358.371252,26.3805346 358.86326,25.812853 358.873498,25.2262844 C358.890136,24.2731105 357.922247,23.9942752 355.994441,23.9606252 Z"/>
  </g>
</svg>
