<svg xmlns="http://www.w3.org/2000/svg" width="287" height="53" viewBox="0 0 287 53">
  <g fill="none" fill-rule="evenodd" stroke-linejoin="square">
    <path fill="#FFF" stroke="#000" stroke-width="9" d="M250.00342,4.5 C251.354596,4.5 252.653534,4.86344363 253.781075,5.52085461 C254.908616,6.1782656 255.86476,7.12964394 256.530362,8.30553992 L256.530362,8.30553992 L279.282303,48.5 L307.5,48.5 L307.5,88.5 L-3.5,88.5 L-3.5,48.5 L7.7176969,48.5 L30.4696532,8.30551335 C31.1352397,7.12964394 32.0913837,6.1782656 33.2189249,5.52085461 C34.3464661,4.86344363 35.6454045,4.5 36.9965796,4.5 L36.9965796,4.5 Z"/>
    <path stroke="#FFF" stroke-width="6" d="M250.00342,3 C251.624831,3 253.183557,3.43613236 254.536606,4.22502554 C255.889655,5.01391872 257.037028,6.15557272 257.835742,7.56663373 L257.835742,7.56663373 L280.156869,47 L309,47 L309,90 L-5,90 L-5,47 L6.84313126,47 L29.1642679,7.56661602 C29.9629717,6.15557272 31.1103445,5.01391872 32.463394,4.22502554 C33.8164434,3.43613236 35.3751695,3 36.9965796,3 L36.9965796,3 Z"/>
  </g>
</svg>
